<svg width="163" height="40" viewBox="0 0 163 40" fill="none" xmlns="http://www.w3.org/2000/svg">
<g clip-path="url(#clip0_976_5762)">
<path d="M0.847226 13.0507C2.51504 13.0448 4.18284 13.0403 5.85066 13.0375C6.62509 13.0362 7.39951 13.0344 8.17393 13.0315C8.84905 13.029 9.52416 13.0274 10.1993 13.0268C10.5566 13.0265 10.914 13.0257 11.2713 13.0238C11.608 13.0221 11.9446 13.0216 12.2813 13.022C12.4046 13.0219 12.5278 13.0214 12.6511 13.0204C13.6364 13.013 14.2652 13.1082 15.0011 13.7972C15.4123 14.2513 15.5984 14.7741 15.6102 15.3818C15.6119 15.4583 15.6135 15.5347 15.6152 15.6135C15.6166 15.6971 15.618 15.7807 15.6194 15.8668C15.6212 15.9558 15.6229 16.0447 15.6247 16.1364C15.6303 16.4345 15.6352 16.7326 15.64 17.0308C15.6418 17.1347 15.6435 17.2386 15.6454 17.3457C15.6883 19.8965 15.6907 22.4473 15.6886 24.9984C15.6883 25.5027 15.6885 26.007 15.6889 26.5114C15.6893 27.0068 15.6894 27.5023 15.6892 27.9978C15.689 28.2898 15.689 28.5817 15.6893 28.8737C15.6895 29.1945 15.6892 29.5153 15.6887 29.8362C15.6889 29.9304 15.689 30.0246 15.6892 30.1217C15.688 30.5705 15.672 30.9984 15.593 31.4405C14.0893 31.1989 12.6964 30.3536 11.6099 29.3219C11.4328 29.1683 11.2544 29.0162 11.0753 28.8647C10.7573 28.5629 10.6011 28.3079 10.5802 27.8622C10.5787 27.7476 10.5776 27.633 10.5769 27.5184C10.5759 27.4243 10.5759 27.4243 10.5748 27.3282C10.5733 27.1913 10.572 27.0544 10.5709 26.9175C10.5691 26.6973 10.5668 26.4771 10.5644 26.257C10.5602 25.8644 10.5565 25.4719 10.5528 25.0794C10.5464 24.3875 10.5395 23.6956 10.5321 23.0037C10.5313 22.9284 10.5305 22.853 10.5297 22.7754C10.5126 21.2 10.4722 19.6255 10.4235 18.0507C9.17058 17.9002 7.93338 17.8529 6.67217 17.8461C6.48079 17.8445 6.28941 17.8429 6.09803 17.8412C5.60041 17.8369 5.10278 17.8335 4.60514 17.8303C4.09491 17.8269 3.58468 17.8226 3.07445 17.8183C2.07781 17.8102 1.08117 17.803 0.0845141 17.7965C-0.34244 16.2623 0.15606 14.4188 0.847226 13.0507Z" fill="#121212"/>
<path d="M24.9901 12.9542C25.1462 12.9535 25.1462 12.9535 25.3055 12.9527C25.4211 12.9526 25.5366 12.9525 25.6521 12.9524C25.7737 12.952 25.8952 12.9516 26.0167 12.9512C26.3469 12.9501 26.6772 12.9495 27.0074 12.9491C27.2136 12.9489 27.4198 12.9485 27.626 12.9482C28.2708 12.947 28.9156 12.9462 29.5605 12.9459C30.3055 12.9455 31.0505 12.944 31.7954 12.9415C32.371 12.9397 32.9466 12.9388 33.5221 12.9387C33.866 12.9386 34.21 12.9381 34.5539 12.9366C34.8772 12.9352 35.2005 12.935 35.5238 12.9358C35.6426 12.9359 35.7614 12.9355 35.8802 12.9347C36.042 12.9336 36.2039 12.9342 36.3658 12.935C36.4565 12.9348 36.5472 12.9347 36.6406 12.9346C36.8644 12.9661 36.8644 12.9661 37.0159 13.0802C37.7197 14.0402 37.8175 15.537 37.8231 16.679C37.8236 16.7616 37.824 16.8441 37.8245 16.9291C37.8184 17.5206 37.8184 17.5206 37.6271 17.7119C37.3962 17.7882 37.1866 17.8069 36.9444 17.8057C36.8767 17.8055 36.8091 17.8054 36.7393 17.8053C36.6658 17.8047 36.5923 17.8041 36.5166 17.8035C36.4385 17.8033 36.3605 17.803 36.2801 17.8027C36.1105 17.8021 35.9409 17.8013 35.7714 17.8004C35.5018 17.7989 35.2323 17.798 34.9628 17.7973C34.1964 17.7953 33.43 17.7923 32.6636 17.7885C32.1945 17.7862 31.7254 17.7848 31.2563 17.7838C31.0786 17.7833 30.9009 17.7825 30.7232 17.7813C29.7039 17.7745 28.7199 17.8051 27.7119 17.9661C27.711 18.0473 27.7101 18.1284 27.7092 18.212C27.7008 18.993 27.6921 19.774 27.6831 20.555C27.6785 20.956 27.674 21.3571 27.6697 21.7582C27.6606 22.6102 27.6502 23.4622 27.6372 24.3141C27.6314 24.6959 27.6261 25.0776 27.6222 25.4594C27.6183 25.8254 27.6129 26.1912 27.6063 26.5571C27.6041 26.6925 27.6025 26.8279 27.6014 26.9633C27.5999 27.1497 27.5964 27.3359 27.5923 27.5223C27.5909 27.6269 27.5894 27.7315 27.5879 27.8393C27.511 28.3396 27.2503 28.7129 26.8968 29.0721C26.839 29.1309 26.7812 29.1897 26.7216 29.2503C26.6297 29.3408 26.6297 29.3408 26.536 29.4333C26.4722 29.4964 26.4084 29.5596 26.3426 29.6247C25.4164 30.5241 24.0665 31.6949 22.7119 31.6949C22.7059 29.5689 22.7014 27.4428 22.6987 25.3168C22.6974 24.3296 22.6956 23.3424 22.6927 22.3552C22.6901 21.4944 22.6885 20.6337 22.6879 19.773C22.6876 19.3175 22.6868 18.862 22.685 18.4065C22.6832 17.9772 22.6827 17.5479 22.6831 17.1186C22.683 16.9616 22.6825 16.8046 22.6816 16.6476C22.6687 14.4828 22.6687 14.4828 23.3921 13.6364C23.8654 13.1781 24.3311 12.956 24.9901 12.9542Z" fill="#121212"/>
<path d="M16.5256 10.8477C18.2875 10.8477 20.0493 10.8477 21.8646 10.8477C21.88 11.8063 21.8944 12.765 21.907 13.7237C21.908 13.8006 21.909 13.8775 21.91 13.9567C21.9599 17.8355 21.9565 21.7144 21.9546 25.5934C21.9546 25.7109 21.9546 25.7109 21.9545 25.8308C21.9536 27.8703 21.9519 29.9098 21.9493 31.9494C21.6672 31.9916 21.385 32.033 21.1027 32.0744C20.9841 32.0921 20.9841 32.0921 20.863 32.1102C20.1902 32.2082 19.5366 32.242 18.8561 32.2354C18.7521 32.2364 18.6481 32.2373 18.541 32.2383C16.8091 32.2328 16.8091 32.2328 16.4409 31.8646C16.4326 31.7457 16.4302 31.6264 16.4301 31.5072C16.4299 31.4297 16.4296 31.3522 16.4294 31.2724C16.4296 31.1863 16.4297 31.1002 16.4299 31.0115C16.4298 30.9208 16.4296 30.8302 16.4295 30.7368C16.4291 30.431 16.4293 30.1252 16.4296 29.8195C16.4295 29.6018 16.4294 29.3842 16.4293 29.1666C16.4291 28.6368 16.4293 28.107 16.4298 27.5772C16.4302 27.1478 16.4304 26.7184 16.4305 26.289C16.432 21.1416 16.4732 15.9948 16.5256 10.8477Z" fill="#121212"/>
<path d="M22.0813 0.884468C23.049 1.63718 23.715 2.76461 23.8981 3.98299C23.9897 5.42555 23.7035 6.58752 22.7752 7.72769C21.9485 8.62691 20.7828 9.19337 19.5671 9.25874C18.2264 9.30605 17.2149 9.00908 16.2074 8.09315C16.113 7.98828 16.113 7.98828 16.0167 7.88129C15.9572 7.82082 15.9572 7.82082 15.8966 7.75914C14.9545 6.75412 14.6732 5.43812 14.7161 4.10249C14.7801 3.03722 15.2737 2.03106 16.0167 1.27112C17.777 -0.156338 20.2011 -0.503167 22.0813 0.884468Z" fill="#EC3136"/>
<path d="M12.1824 4.2425C12.8808 4.83702 13.3085 5.56574 13.5595 6.44059C13.5757 6.49238 13.5918 6.54416 13.6085 6.59751C13.7944 7.54414 13.6681 8.59519 13.1934 9.43517C12.5972 10.2854 11.7724 10.8126 10.7629 11.0433C9.70302 11.2175 8.73724 11.0789 7.82626 10.4899C7.00188 9.86437 6.4518 8.93515 6.2919 7.91206C6.18485 6.86748 6.38096 5.93197 6.99734 5.06811C8.21786 3.57856 10.5728 3.09793 12.1824 4.2425Z" fill="#EC3136"/>
<path d="M27.6273 30.4238C27.6729 30.5213 27.7186 30.6187 27.7657 30.7191C27.836 30.8679 27.9064 31.0166 27.9769 31.1654C28.0158 31.2475 28.0547 31.3297 28.0948 31.4144C28.4007 32.0545 28.718 32.6883 29.0395 33.3207C29.125 33.4895 29.2105 33.6583 29.296 33.8271C29.4256 34.0829 29.5555 34.3384 29.6865 34.5934C29.8109 34.8357 29.9341 35.0785 30.0571 35.3215C30.0954 35.3952 30.1336 35.4688 30.1731 35.5447C30.2074 35.6131 30.2418 35.6815 30.2772 35.7519C30.3077 35.8116 30.3382 35.8712 30.3696 35.9326C30.4367 36.1418 30.427 36.2401 30.3391 36.4408C30.122 36.5758 29.9174 36.6872 29.6877 36.7956C29.6276 36.8257 29.5676 36.8558 29.5058 36.8869C29.1591 37.0556 28.8596 37.1484 28.4747 37.2035C28.3047 36.8683 28.1354 36.5328 27.9663 36.1971C27.9178 36.1015 27.8693 36.006 27.8193 35.9075C27.7734 35.8163 27.7275 35.725 27.6802 35.6311C27.6376 35.5467 27.595 35.4624 27.5511 35.3755C27.4578 35.1696 27.4578 35.1696 27.4578 35.0001C26.5769 35.3776 26.5769 35.3776 25.6781 35.7628C25.6781 36.1183 25.7387 36.279 25.882 36.5984C25.9241 36.6928 25.9662 36.7873 26.0095 36.8847C26.0762 37.032 26.0762 37.032 26.1442 37.1823C26.1887 37.2818 26.2332 37.3813 26.279 37.4839C26.3889 37.7297 26.4993 37.9752 26.6103 38.2204C26.3069 38.4565 25.9882 38.6246 25.6411 38.7872C25.5855 38.8143 25.53 38.8415 25.4727 38.8694C25.1555 39.0187 24.9241 39.0815 24.5764 39.0679C24.0996 38.0807 24.0996 38.0807 23.8909 37.6479C23.8358 37.5338 23.7807 37.4196 23.7257 37.3054C23.6978 37.2477 23.67 37.19 23.6413 37.1306C23.48 36.7963 23.3182 36.4622 23.156 36.1283C23.0343 35.8777 22.9129 35.6269 22.7915 35.3762C22.7472 35.2852 22.7028 35.1943 22.6572 35.1006C22.4433 34.6585 22.2359 34.2139 22.0397 33.7637C22.0039 33.6817 21.9681 33.5998 21.9313 33.5154C21.8646 33.3052 21.8646 33.3052 21.9493 33.0509C22.1145 32.9443 22.1145 32.9443 22.3284 32.8407C22.4045 32.8033 22.4807 32.7659 22.5593 32.7274C22.6394 32.6891 22.7195 32.6508 22.8021 32.6113C22.8825 32.5721 22.963 32.5328 23.0459 32.4923C23.245 32.3953 23.4444 32.299 23.6442 32.2035C23.8541 32.393 23.97 32.5737 24.0901 32.8288C24.1237 32.8999 24.1573 32.9709 24.1919 33.0442C24.2262 33.1181 24.2604 33.192 24.2957 33.2681C24.3309 33.3423 24.3662 33.4166 24.4025 33.493C24.6612 34.0449 24.6612 34.0449 24.6612 34.2374C25.5743 33.8611 25.5743 33.8611 26.4408 33.3899C26.3802 32.8983 26.1297 32.4818 25.9075 32.0467C25.8771 31.9847 25.8466 31.9228 25.8152 31.8589C25.7869 31.803 25.7586 31.7471 25.7294 31.6895C25.6651 31.4838 25.6785 31.3841 25.7629 31.1865C25.9709 31.0527 26.1676 30.9408 26.3879 30.8317C26.446 30.8016 26.5041 30.7715 26.564 30.7405C26.9382 30.5486 27.2028 30.4238 27.6273 30.4238Z" fill="#EC3136"/>
<path d="M14.4069 32.5422C14.8686 32.9001 15.2044 33.3226 15.3391 33.8981C15.365 34.3243 15.3593 34.7425 15.3391 35.1693C14.9526 35.1909 14.7055 35.1384 14.3592 34.968C14.0205 34.8029 14.0205 34.8029 13.6667 34.6757C13.4747 34.5761 13.4747 34.5761 13.3836 34.3645C13.3665 34.2823 13.3493 34.2 13.3317 34.1153C13.2666 33.8153 13.2238 33.649 13.0509 33.3896C12.768 33.3003 12.5691 33.296 12.2882 33.3896C12.418 34.0962 12.8644 34.4165 13.3899 34.8674C13.9253 35.3309 14.4392 35.7947 14.5201 36.5295C14.5284 37.2251 14.4789 37.6933 14.003 38.2145C13.5066 38.6845 13.04 38.9035 12.3571 38.9352C11.1252 38.896 10.0631 38.2904 9.16058 37.4948C8.73842 37.0026 8.69159 36.5241 8.70772 35.9055C8.70816 35.8369 8.70859 35.7682 8.70904 35.6975C8.71573 35.1956 8.71573 35.1956 8.81365 34.9998C9.461 35.1466 10.0692 35.3277 10.6781 35.593C10.6822 35.6625 10.6864 35.732 10.6906 35.8036C10.697 35.8949 10.7033 35.9862 10.7098 36.0803C10.7157 36.1708 10.7216 36.2612 10.7277 36.3544C10.761 36.597 10.7989 36.7459 10.9323 36.949C11.3048 37.1915 11.5931 37.2448 12.034 37.2032C12.1179 37.1473 12.2018 37.0913 12.2882 37.0337C12.2746 36.4886 11.9786 36.211 11.6103 35.8473C11.4681 35.7192 11.325 35.5921 11.1812 35.4659C10.6367 34.9852 10.1372 34.4691 10.0564 33.7184C10.0452 32.7712 10.0452 32.7712 10.4238 32.3727C11.5256 31.2954 13.2551 31.7701 14.4069 32.5422Z" fill="#EC3136"/>
<path d="M114.02 15.1588C114.128 15.248 114.128 15.248 114.237 15.3389C114.35 15.4241 114.463 15.5089 114.576 15.5932C114.618 15.5584 114.66 15.5237 114.704 15.4879C115.222 15.0764 115.635 14.8908 116.308 14.9205C116.757 14.9748 117.14 15.0903 117.458 15.4237C117.808 15.9919 117.843 16.4357 117.83 17.0948C117.829 17.1878 117.829 17.2809 117.828 17.3769C117.826 17.6722 117.822 17.9674 117.818 18.2627C117.816 18.4637 117.814 18.6648 117.813 18.8658C117.809 19.3569 117.804 19.8479 117.797 20.3389C117.321 20.3389 116.846 20.3389 116.356 20.3389C116.355 20.2282 116.353 20.1175 116.352 20.0034C116.347 19.5919 116.341 19.1805 116.334 18.7691C116.331 18.5911 116.328 18.4132 116.327 18.2352C116.324 17.9792 116.319 17.7232 116.314 17.4672C116.314 17.3878 116.313 17.3084 116.313 17.2266C116.302 16.6628 116.302 16.6628 116.017 16.1864C115.729 16.1498 115.512 16.1619 115.233 16.2394C114.972 16.4442 114.851 16.7172 114.805 17.0442C114.793 17.2544 114.789 17.4635 114.787 17.6741C114.786 17.7505 114.784 17.8269 114.782 17.9056C114.778 18.1482 114.775 18.3908 114.772 18.6334C114.769 18.7985 114.766 18.9636 114.763 19.1287C114.756 19.5321 114.751 19.9355 114.746 20.3389C114.27 20.3389 113.795 20.3389 113.305 20.3389C113.301 20.1163 113.297 19.8937 113.292 19.6643C113.288 19.446 113.283 19.2278 113.278 19.0096C113.275 18.8592 113.272 18.7088 113.269 18.5584C113.259 17.4029 113.259 17.4029 113.051 16.2711C112.75 16.1207 112.418 16.1539 112.097 16.2341C111.825 16.4576 111.717 16.7923 111.669 17.1332C111.658 17.3386 111.653 17.5428 111.651 17.7486C111.65 17.823 111.648 17.8974 111.647 17.974C111.642 18.2097 111.639 18.4454 111.637 18.6811C111.634 18.8417 111.631 19.0023 111.628 19.1629C111.621 19.5549 111.615 19.9469 111.61 20.3389C111.135 20.3389 110.659 20.3389 110.169 20.3389C110.169 18.605 110.169 16.8711 110.169 15.0847C110.617 15.0847 111.064 15.0847 111.525 15.0847C111.553 15.2245 111.581 15.3644 111.61 15.5084C111.696 15.442 111.781 15.3756 111.87 15.3072C112.523 14.8478 113.311 14.7721 114.02 15.1588Z" fill="#121212"/>
<path d="M30.2695 5.96629C30.829 6.39811 31.2368 7.09601 31.3559 7.7966C31.4197 8.74435 31.3897 9.54026 30.7892 10.3231C30.2038 10.9451 29.3131 11.2638 28.4693 11.303C27.6656 11.2264 26.9087 10.9604 26.3738 10.3297C25.8301 9.55305 25.5907 8.73559 25.7121 7.78336C25.8355 7.20463 26.0343 6.78539 26.4407 6.35592C26.4833 6.30895 26.5259 6.26198 26.5698 6.21358C27.5468 5.25557 29.1656 5.25613 30.2695 5.96629Z" fill="#EC3136"/>
<path d="M49.0255 13.485C49.509 14.0409 49.6541 14.5201 49.7458 15.254C49.2145 15.254 48.6831 15.254 48.1357 15.254C48.0518 15.0023 47.9679 14.7506 47.8814 14.4913C47.4197 14.2605 46.8509 14.2496 46.3481 14.3612C46.1635 14.4184 46.1635 14.4184 45.9323 14.5761C45.8202 14.8248 45.8202 14.8248 45.8475 15.0845C46.0524 15.3739 46.3411 15.4364 46.6685 15.5401C46.7241 15.5581 46.7796 15.5761 46.8369 15.5947C47.1346 15.6906 47.4336 15.7805 47.7344 15.8661C48.5545 16.1025 49.2676 16.3643 49.7458 17.1184C49.9818 17.7083 50.0194 18.3963 49.82 19.004C49.5584 19.6005 49.1423 19.9827 48.5594 20.254C48.0488 20.4069 47.5817 20.4563 47.0499 20.4553C46.9753 20.4552 46.9008 20.455 46.8241 20.4549C46.2482 20.444 45.7684 20.3563 45.2543 20.0845C45.1617 20.0373 45.069 19.9902 44.9736 19.9415C44.4959 19.5305 44.1851 19.0109 44.0679 18.3896C44.0679 18.2218 44.0679 18.054 44.0679 17.8812C44.781 17.8392 44.781 17.8392 45.5085 17.7964C45.6003 17.9957 45.6003 17.9957 45.6939 18.1989C45.8954 18.6013 46.0819 18.8694 46.5096 19.0464C47.0683 19.1103 47.5545 19.0998 48.0509 18.8134C48.2402 18.5886 48.2986 18.4582 48.3263 18.1672C48.3112 17.9535 48.3112 17.9535 48.2204 17.7117C48.0733 17.6329 48.0733 17.6329 47.8897 17.5839C47.8207 17.5629 47.7517 17.5419 47.6805 17.5202C47.2325 17.3939 46.7837 17.2709 46.333 17.1545C45.7111 16.9844 45.1319 16.7407 44.7141 16.2286C44.6749 16.1823 44.6358 16.136 44.5955 16.0882C44.2625 15.5877 44.2623 15.074 44.3221 14.4913C44.4694 13.9612 44.8042 13.6069 45.2543 13.3049C46.3233 12.7214 48.0213 12.7688 49.0255 13.485Z" fill="#121212"/>
<path d="M132.966 13.1357C133.47 13.1357 133.973 13.1357 134.492 13.1357C134.492 14.0586 134.492 14.9815 134.492 15.9324C135.387 15.9324 136.282 15.9324 137.204 15.9324C137.204 15.0095 137.204 14.0866 137.204 13.1357C137.707 13.1357 138.21 13.1357 138.729 13.1357C138.729 15.5129 138.729 17.89 138.729 20.3391C138.226 20.3391 137.722 20.3391 137.204 20.3391C137.204 19.3044 137.204 18.2696 137.204 17.2035C136.309 17.2035 135.414 17.2035 134.492 17.2035C134.492 18.2383 134.492 19.273 134.492 20.3391C133.988 20.3391 133.485 20.3391 132.966 20.3391C132.966 17.962 132.966 15.5849 132.966 13.1357Z" fill="#121212"/>
<path d="M0.254205 19.4917C0.701662 19.4917 1.14912 19.4917 1.61014 19.4917C1.62456 19.6433 1.63898 19.795 1.65383 19.9512C2.05951 24.0671 3.38425 27.5745 6.27115 30.5934C6.34522 30.6719 6.41929 30.7505 6.4956 30.8314C7.12639 31.4835 7.8231 32.1029 8.59438 32.5859C8.72878 32.712 8.72878 32.712 8.75229 32.9044C8.69418 33.3392 8.62126 33.6856 8.3898 34.068C7.99223 34.0249 7.77324 33.8631 7.46289 33.6178C7.4155 33.5803 7.36811 33.5429 7.31928 33.5044C6.12224 32.5511 5.00844 31.5535 4.06776 30.3392C4.01455 30.2709 4.01455 30.2709 3.96026 30.2013C1.74042 27.3347 0.206412 23.8291 0.248908 20.1538C0.250656 19.9353 0.252404 19.7168 0.254205 19.4917Z" fill="#121212"/>
<path d="M16.271 33.3052C17.9769 33.3052 19.6829 33.3052 21.4405 33.3052C21.4405 33.8086 21.4405 34.312 21.4405 34.8306C20.4617 34.8306 19.4829 34.8306 18.4744 34.8306C18.4744 35.1382 18.4744 35.4459 18.4744 35.7628C18.6645 35.7613 18.6645 35.7613 18.8584 35.7598C19.027 35.759 19.1956 35.7583 19.3642 35.7575C19.4475 35.7568 19.5307 35.7561 19.6165 35.7554C19.6984 35.7551 19.7803 35.7548 19.8647 35.7545C19.9393 35.7541 20.0139 35.7536 20.0907 35.7532C20.4007 35.7652 20.7089 35.8091 21.0168 35.8475C21.0168 36.323 21.0168 36.7984 21.0168 37.2882C20.7373 37.3814 20.5312 37.3826 20.2372 37.3812C20.1449 37.381 20.0526 37.3808 19.9575 37.3806C19.8404 37.3798 19.7233 37.3791 19.6026 37.3783C19.2303 37.3765 18.858 37.3748 18.4744 37.373C18.4744 38.2399 18.4744 39.1069 18.4744 40.0001C17.7473 40.0001 17.0201 40.0001 16.271 40.0001C16.271 37.7908 16.271 35.5814 16.271 33.3052Z" fill="#EC3136"/>
<path d="M36.4407 19.4917C36.8882 19.4917 37.3356 19.4917 37.7966 19.4917C37.8374 23.6948 36.2695 28.0032 33.351 31.0488C33.2184 31.1887 33.0887 31.3306 32.9595 31.4736C32.251 32.2574 31.5597 33.0102 30.5932 33.4748C30.5033 33.299 30.4154 33.1223 30.3284 32.9451C30.2792 32.8468 30.2301 32.7485 30.1794 32.6472C30.0848 32.3731 30.0848 32.3731 30.1324 32.1907C30.484 31.7388 30.9175 31.3523 31.3507 30.98C34.5267 28.2309 36.0219 24.2258 36.3242 20.1114C36.3311 19.9851 36.3311 19.9851 36.3381 19.8562C36.356 19.6612 36.356 19.6612 36.4407 19.4917Z" fill="#121212"/>
<path d="M157.288 13.1357C157.764 13.1357 158.239 13.1357 158.729 13.1357C158.757 13.9188 158.785 14.7018 158.814 15.5086C159.009 15.3688 159.205 15.229 159.407 15.0849C160.023 14.8627 160.588 14.8811 161.208 15.0955C161.585 15.3529 161.888 15.6645 162.034 16.1018C162.041 16.241 162.044 16.3804 162.043 16.5197C162.043 16.6045 162.043 16.6893 162.043 16.7767C162.043 16.8681 162.043 16.9594 162.042 17.0536C162.042 17.1473 162.042 17.241 162.042 17.3375C162.041 17.6371 162.04 17.9367 162.039 18.2364C162.039 18.4394 162.038 18.6423 162.038 18.8453C162.037 19.3433 162.036 19.8412 162.034 20.3391C161.558 20.3391 161.083 20.3391 160.593 20.3391C160.592 20.1685 160.592 20.1685 160.591 19.9944C160.587 19.5724 160.582 19.1504 160.576 18.7284C160.573 18.5458 160.571 18.3631 160.57 18.1805C160.568 17.9179 160.564 17.6554 160.56 17.3929C160.56 17.3112 160.56 17.2296 160.56 17.1454C160.555 16.6941 160.555 16.6941 160.347 16.3047C160.043 16.1023 159.758 16.125 159.407 16.1866C159.126 16.3421 159.015 16.4497 158.89 16.7441C158.795 17.1034 158.784 17.4368 158.778 17.8067C158.777 17.8793 158.775 17.952 158.773 18.0268C158.768 18.2573 158.764 18.4878 158.761 18.7184C158.757 18.8753 158.754 19.0322 158.751 19.1891C158.742 19.5724 158.736 19.9558 158.729 20.3391C158.253 20.3391 157.778 20.3391 157.288 20.3391C157.288 17.962 157.288 15.5849 157.288 13.1357Z" fill="#121212"/>
<path d="M98.644 13.1357C100.294 13.1357 101.944 13.1357 103.644 13.1357C103.644 13.5552 103.644 13.9747 103.644 14.4069C102.497 14.4069 101.351 14.4069 100.169 14.4069C100.169 14.9383 100.169 15.4696 100.169 16.0171C101.148 16.0171 102.127 16.0171 103.136 16.0171C103.136 16.4366 103.136 16.8561 103.136 17.2883C102.157 17.2883 101.178 17.2883 100.169 17.2883C100.169 18.2951 100.169 19.3018 100.169 20.3391C99.6661 20.3391 99.1627 20.3391 98.644 20.3391C98.644 17.962 98.644 15.5849 98.644 13.1357Z" fill="#121212"/>
<path d="M73.644 15.0846C74.1474 15.0846 74.6508 15.0846 75.1695 15.0846C75.4449 15.7523 75.6832 16.428 75.911 17.1132C75.9458 17.2164 75.9807 17.3196 76.0166 17.4259C76.0495 17.5245 76.0824 17.6231 76.1162 17.7247C76.146 17.8138 76.1758 17.9029 76.2065 17.9948C76.2712 18.2202 76.2712 18.2202 76.2712 18.4745C76.3271 18.4745 76.383 18.4745 76.4407 18.4745C76.4598 18.3757 76.4789 18.2769 76.4986 18.1752C76.62 17.629 76.8017 17.1021 76.9803 16.5726C77.0398 16.3964 77.0985 16.2199 77.1572 16.0433C77.4458 15.1812 77.4458 15.1812 77.5423 15.0846C77.6561 15.0773 77.7703 15.0756 77.8843 15.0763C77.9529 15.0766 78.0214 15.0769 78.092 15.0772C78.1641 15.0779 78.2361 15.0786 78.3104 15.0793C78.3827 15.0797 78.4551 15.0801 78.5297 15.0805C78.709 15.0815 78.8884 15.083 79.0678 15.0846C78.5665 16.5213 78.0603 17.9562 77.5338 19.3838C77.487 19.5107 77.4404 19.6377 77.394 19.7647C76.6164 21.8898 76.6164 21.8898 75.8358 22.2979C75.5023 22.4008 75.193 22.3909 74.8464 22.3834C74.7796 22.3826 74.7128 22.3818 74.6439 22.381C74.4801 22.3791 74.3163 22.376 74.1525 22.3728C73.9972 21.9459 73.9676 21.6347 73.983 21.1863C74.0525 21.1841 74.122 21.1819 74.1936 21.1797C74.3306 21.1725 74.3306 21.1725 74.4703 21.1651C74.5608 21.1612 74.6512 21.1573 74.7444 21.1532C75.1069 21.08 75.249 20.8953 75.4502 20.5984C75.5932 20.1695 75.3084 19.6671 75.1552 19.2646C75.1283 19.1932 75.1015 19.1218 75.0737 19.0482C74.9877 18.8198 74.9011 18.5915 74.8146 18.3632C74.758 18.2133 74.7015 18.0634 74.6449 17.9135C74.3224 17.0584 74.3224 17.0584 73.9977 16.2041C73.9508 16.0804 73.9038 15.9568 73.8569 15.8331C73.8352 15.7766 73.8135 15.7201 73.7911 15.6619C73.644 15.2733 73.644 15.2733 73.644 15.0846Z" fill="#121212"/>
<path d="M123.983 15.0846C124.486 15.0846 124.99 15.0846 125.508 15.0846C125.797 15.7853 126.048 16.4969 126.292 17.2139C126.331 17.3284 126.371 17.4429 126.41 17.5575C126.505 17.8348 126.6 18.1122 126.695 18.3897C126.983 17.7089 127.21 17.0132 127.431 16.3081C127.498 16.0943 127.566 15.8806 127.633 15.6669C127.663 15.5733 127.692 15.4798 127.722 15.3834C127.796 15.1694 127.796 15.1694 127.881 15.0846C127.995 15.0773 128.109 15.0756 128.223 15.0763C128.316 15.0767 128.316 15.0767 128.41 15.077C128.489 15.0778 128.568 15.0785 128.649 15.0793C128.784 15.0803 128.919 15.0812 129.055 15.0822C129.172 15.083 129.289 15.0838 129.407 15.0846C128.981 16.3105 128.547 17.5331 128.104 18.7529C128.033 18.9503 127.961 19.1479 127.891 19.3455C127.786 19.6358 127.681 19.9258 127.576 20.2157C127.545 20.3033 127.514 20.3909 127.482 20.4811C127.207 21.2305 126.917 21.9133 126.177 22.2956C125.844 22.4005 125.537 22.3942 125.191 22.3886C125.124 22.3886 125.058 22.3885 124.99 22.3885C124.503 22.3847 124.503 22.3847 124.407 22.288C124.387 22.103 124.372 21.9175 124.359 21.7319C124.352 21.6304 124.345 21.5289 124.337 21.4243C124.332 21.3458 124.327 21.2672 124.322 21.1863C124.391 21.1841 124.461 21.1819 124.532 21.1797C124.669 21.1725 124.669 21.1725 124.809 21.1651C124.9 21.1612 124.99 21.1573 125.083 21.1532C125.444 21.0802 125.584 20.896 125.789 20.6037C125.916 20.2111 125.733 19.8016 125.59 19.4322C125.554 19.3395 125.518 19.2468 125.482 19.1512C125.443 19.0524 125.405 18.9536 125.365 18.8518C125.305 18.6955 125.245 18.5392 125.185 18.3829C125.101 18.1649 125.016 17.9472 124.932 17.7294C124.784 17.3469 124.636 16.9643 124.488 16.5815C124.41 16.3779 124.331 16.1743 124.252 15.9709C124.217 15.8793 124.181 15.7876 124.145 15.6932C124.114 15.6123 124.082 15.5314 124.05 15.448C123.983 15.2541 123.983 15.2541 123.983 15.0846Z" fill="#121212"/>
<path d="M108.559 15.3392C108.979 15.8428 108.995 16.2789 109.004 16.9129C109.007 17.0586 109.009 17.2043 109.012 17.3499C109.016 17.578 109.02 17.8062 109.023 18.0343C109.038 19.1967 109.038 19.1967 109.237 20.3392C108.762 20.3392 108.286 20.3392 107.796 20.3392C107.74 20.1994 107.685 20.0595 107.627 19.9155C107.582 19.9451 107.537 19.9747 107.491 20.0052C107.401 20.063 107.401 20.063 107.309 20.122C107.25 20.1604 107.191 20.1987 107.13 20.2382C106.604 20.5311 105.871 20.5197 105.3 20.369C104.884 20.1831 104.592 19.9102 104.407 19.4917C104.28 19.0107 104.28 18.5708 104.486 18.1143C104.891 17.4475 105.689 17.2827 106.397 17.1073C106.75 17.0226 107.103 16.9426 107.457 16.8646C107.436 16.666 107.407 16.4681 107.373 16.2714C107.04 16.105 106.634 16.1464 106.271 16.1866C106.046 16.3474 105.968 16.4532 105.847 16.6951C105.37 16.7154 104.954 16.643 104.491 16.5256C104.532 16.0939 104.715 15.7447 105 15.4239C105.929 14.7838 107.605 14.6455 108.559 15.3392ZM106.742 18.0352C106.685 18.0492 106.627 18.0632 106.567 18.0777C106.147 18.1829 106.147 18.1829 105.847 18.4748C105.812 18.7519 105.82 18.9247 105.937 19.1792C106.183 19.3935 106.373 19.4015 106.695 19.407C107.088 19.2681 107.339 19.096 107.542 18.729C107.569 18.4441 107.562 18.1667 107.542 17.8816C107.267 17.8816 107.007 17.9666 106.742 18.0352Z" fill="#121212"/>
<path d="M149.614 15.4468C149.954 15.8241 149.94 16.2625 149.942 16.7458C149.944 16.8904 149.946 17.035 149.948 17.1796C149.95 17.4053 149.952 17.631 149.954 17.8567C149.961 18.7166 149.981 19.5133 150.254 20.3392C150.019 20.3506 149.785 20.359 149.55 20.3657C149.483 20.3692 149.417 20.3728 149.348 20.3764C149.161 20.3804 148.997 20.3802 148.814 20.3392C148.641 20.1257 148.641 20.1257 148.559 19.9155C148.513 19.9451 148.467 19.9747 148.42 20.0052C148.359 20.0437 148.299 20.0823 148.236 20.122C148.146 20.1796 148.146 20.1796 148.055 20.2382C147.557 20.5287 146.893 20.495 146.339 20.3879C145.888 20.2227 145.55 19.8291 145.339 19.407C145.281 18.7814 145.273 18.2935 145.678 17.7968C146.192 17.3749 146.773 17.2399 147.41 17.0977C147.594 17.0551 147.777 17.0123 147.961 16.9692C148.041 16.9511 148.121 16.9329 148.204 16.9142C148.387 16.8821 148.387 16.8821 148.475 16.7799C148.424 16.6087 148.367 16.4391 148.305 16.2714C147.991 16.1141 147.631 16.1366 147.288 16.1867C147.027 16.3774 147.027 16.3774 146.865 16.6104C146.837 16.6384 146.809 16.6663 146.78 16.6951C146.615 16.6897 146.451 16.678 146.287 16.6634C146.198 16.6557 146.108 16.6481 146.015 16.6402C145.81 16.6159 145.622 16.5823 145.424 16.5256C145.527 15.9757 145.771 15.628 146.187 15.2545C147.134 14.6459 148.747 14.7744 149.614 15.4468ZM147.67 18.0352C147.584 18.0562 147.584 18.0562 147.496 18.0777C147.078 18.1839 147.078 18.1839 146.78 18.4748C146.734 18.7805 146.738 18.9241 146.917 19.1792C147.174 19.3613 147.311 19.407 147.627 19.407C148.003 19.2752 148.251 19.1487 148.475 18.8138C148.513 18.5817 148.513 18.5817 148.528 18.3318C148.534 18.2476 148.54 18.1633 148.547 18.0766C148.551 18.0122 148.555 17.9479 148.559 17.8816C148.247 17.8816 147.969 17.9567 147.67 18.0352Z" fill="#121212"/>
<path d="M90.1908 15.6039C90.7123 16.0869 90.9782 16.717 91.0343 17.419C91.0498 18.2918 90.8749 19.0188 90.2593 19.6641C89.6501 20.2478 89.1538 20.4307 88.3158 20.4609C87.5079 20.44 86.8401 20.2299 86.2478 19.6667C85.6144 18.9069 85.5202 18.0759 85.5933 17.1187C85.7704 16.3509 86.0886 15.7453 86.7533 15.3126C87.8819 14.6891 89.1834 14.807 90.1908 15.6039ZM87.1893 16.8426C87.0879 17.1177 87.0932 17.3667 87.0923 17.659C87.0909 17.768 87.0894 17.877 87.088 17.9893C87.1314 18.4349 87.2583 18.7101 87.5902 19.0096C87.9343 19.2479 88.1374 19.2655 88.5594 19.2373C88.9985 19.0824 89.1806 18.8769 89.4069 18.4746C89.5799 17.9558 89.5627 17.3399 89.3963 16.8221C89.1423 16.4834 88.9483 16.2347 88.5283 16.1425C87.9041 16.1017 87.5332 16.3295 87.1893 16.8426Z" fill="#121212"/>
<path d="M55.2544 15.5085C55.4964 15.7415 55.6769 15.9826 55.8477 16.2712C55.8932 16.345 55.8932 16.345 55.9397 16.4202C56.2501 17.0553 56.1927 17.9687 56.0463 18.6477C55.7771 19.396 55.2818 19.8973 54.5861 20.2619C53.9195 20.549 53.0114 20.5392 52.336 20.286C51.5691 19.9192 51.1666 19.5242 50.8477 18.7288C50.607 18.0068 50.6574 16.9562 50.9966 16.2742C51.0314 16.2173 51.0661 16.1604 51.1019 16.1017C51.1349 16.0474 51.1679 15.9931 51.2019 15.9372C51.591 15.4041 52.2471 15.0849 52.8809 14.9434C53.7574 14.8467 54.527 14.9994 55.2544 15.5085ZM52.5426 16.5255C52.1975 17.0014 52.1527 17.4774 52.2036 18.0509C52.3148 18.5787 52.5293 18.8457 52.9663 19.1526C53.226 19.2824 53.4423 19.2568 53.729 19.2373C54.1459 19.0434 54.4285 18.8053 54.5977 18.374C54.7199 17.7527 54.731 17.174 54.407 16.6102C54.0242 16.2461 53.7629 16.156 53.2477 16.1626C52.9425 16.1996 52.7701 16.325 52.5426 16.5255Z" fill="#121212"/>
<path d="M143.607 15.3134C144.317 15.9081 144.568 16.5477 144.661 17.4575C144.661 17.6813 144.661 17.905 144.661 18.1355C143.542 18.1355 142.424 18.1355 141.271 18.1355C141.45 18.8603 141.45 18.8603 141.78 19.1525C141.96 19.2043 141.96 19.2043 142.156 19.216C142.22 19.2226 142.285 19.2291 142.351 19.2359C142.549 19.2372 142.697 19.225 142.881 19.1525C142.98 18.9003 142.98 18.9003 143.051 18.644C143.329 18.5048 143.615 18.6214 143.909 18.6811C143.973 18.6936 144.037 18.7061 144.103 18.719C144.261 18.75 144.418 18.7816 144.576 18.8135C144.372 19.4723 144.096 19.9188 143.475 20.2541C142.642 20.5324 141.737 20.5612 140.934 20.1807C140.379 19.869 140.066 19.4631 139.852 18.8664C139.622 18.0324 139.616 16.973 140 16.1863C140.352 15.5782 140.781 15.2376 141.441 14.9999C142.184 14.8263 142.96 14.8845 143.607 15.3134ZM141.441 16.4406C141.248 16.7258 141.271 16.8286 141.271 17.2033C141.914 17.2033 142.558 17.2033 143.22 17.2033C143.114 16.5584 143.114 16.5584 142.828 16.2711C142.314 15.9664 141.87 15.9864 141.441 16.4406Z" fill="#121212"/>
<path d="M69.2213 15.5477C69.9306 16.2729 69.9152 17.1707 69.9152 18.1354C68.7965 18.1354 67.6779 18.1354 66.5253 18.1354C66.7582 18.8313 66.7582 18.8313 67.288 19.2371C67.5739 19.2796 67.5739 19.2796 67.8813 19.2371C68.149 19.0218 68.2809 18.8858 68.3897 18.5592C68.8652 18.6431 69.3406 18.727 69.8304 18.8134C69.7041 19.4449 69.42 19.7981 68.8982 20.1693C68.1547 20.5614 67.241 20.5432 66.4459 20.3018C65.8605 20.0549 65.4343 19.587 65.1747 19.0094C64.8903 18.0708 64.9075 16.9449 65.3607 16.0638C65.7133 15.5571 66.1977 15.1275 66.8008 14.9628C67.6894 14.8159 68.5157 14.9775 69.2213 15.5477ZM66.6948 16.5253C66.6389 16.749 66.583 16.9727 66.5253 17.2032C67.1686 17.2032 67.8118 17.2032 68.4745 17.2032C68.3979 16.6026 68.3979 16.6026 68.0508 16.1863C67.5128 15.9173 67.0663 16.1007 66.6948 16.5253Z" fill="#121212"/>
<path d="M60.784 15.223C61.1852 15.5371 61.5652 15.9371 61.6947 16.4406C61.6947 16.5245 61.6947 16.6084 61.6947 16.6948C61.2193 16.7787 60.7439 16.8626 60.254 16.949C60.1701 16.7533 60.0862 16.5575 59.9998 16.3558C59.7608 16.1746 59.5727 16.1658 59.2795 16.1969C59.0275 16.2333 58.9068 16.2653 58.6915 16.4088C58.363 16.9082 58.3313 17.4704 58.3896 18.0507C58.4787 18.4465 58.5675 18.8099 58.8981 19.0677C59.2442 19.1701 59.5615 19.1848 59.9045 19.073C60.1565 18.8533 60.1565 18.8533 60.3388 18.2202C60.8142 18.3041 61.2896 18.388 61.7795 18.4745C61.6877 19.1171 61.4859 19.5435 61.0167 19.9999C60.3149 20.4743 59.5507 20.4846 58.7286 20.4236C57.9955 20.2413 57.5234 19.8899 57.128 19.2537C56.7279 18.4646 56.7476 17.4454 56.9195 16.5889C57.1508 15.9535 57.5664 15.4219 58.1831 15.1323C58.9639 14.8128 60.0428 14.7862 60.784 15.223Z" fill="#121212"/>
<path d="M85.593 13.1356C85.5371 13.4712 85.4811 13.8068 85.4235 14.1525C85.2111 14.147 84.9987 14.1415 84.7863 14.136C84.5545 14.137 84.5545 14.137 84.3218 14.322C84.2727 14.508 84.2727 14.508 84.2636 14.714C84.2548 14.8363 84.2461 14.9587 84.2371 15.0847C84.5727 15.0847 84.9083 15.0847 85.254 15.0847C85.254 15.4483 85.254 15.8118 85.254 16.1864C84.9184 16.1864 84.5828 16.1864 84.2371 16.1864C84.2371 17.5568 84.2371 18.9271 84.2371 20.339C83.7337 20.339 83.2303 20.339 82.7117 20.339C82.7117 18.9686 82.7117 17.5983 82.7117 16.1864C82.4879 16.1864 82.2642 16.1864 82.0337 16.1864C82.0337 15.8229 82.0337 15.4593 82.0337 15.0847C82.2574 15.0847 82.4811 15.0847 82.7117 15.0847C82.7138 14.9989 82.716 14.913 82.7183 14.8245C82.7231 14.71 82.7279 14.5954 82.7328 14.4809C82.734 14.4245 82.7352 14.3682 82.7365 14.3101C82.7574 13.8837 82.8696 13.6354 83.1354 13.3051C83.8275 12.8033 84.8163 12.8466 85.593 13.1356Z" fill="#121212"/>
<path d="M155.508 13.2202C155.508 13.8355 155.508 14.4507 155.508 15.0846C155.816 15.0846 156.124 15.0846 156.44 15.0846C156.44 15.4482 156.44 15.8117 156.44 16.1863C156.133 16.1863 155.825 16.1863 155.508 16.1863C155.536 17.1372 155.564 18.088 155.593 19.0677C156.017 19.1807 156.017 19.1807 156.44 19.0677C156.482 19.655 156.482 19.655 156.525 20.2541C155.883 20.4683 155.259 20.5421 154.608 20.3177C154.313 20.1008 154.183 19.922 154.068 19.5761C154.06 19.463 154.058 19.3495 154.058 19.2361C154.058 19.1683 154.058 19.1004 154.058 19.0305C154.058 18.9577 154.059 18.8848 154.059 18.8098C154.059 18.7349 154.06 18.66 154.06 18.5829C154.06 18.3437 154.061 18.1045 154.062 17.8653C154.063 17.7032 154.063 17.541 154.063 17.3789C154.064 16.9814 154.066 16.5838 154.068 16.1863C153.844 16.1863 153.62 16.1863 153.39 16.1863C153.39 15.8228 153.39 15.4592 153.39 15.0846C153.613 15.0846 153.837 15.0846 154.068 15.0846C154.045 14.9786 154.045 14.9786 154.023 14.8704C153.983 14.5372 153.976 14.3076 154.068 13.9829C154.39 13.647 155.038 13.2202 155.508 13.2202Z" fill="#121212"/>
<path d="M72.4577 13.2202C72.4577 13.8355 72.4577 14.4507 72.4577 15.0846C72.7654 15.0846 73.073 15.0846 73.3899 15.0846C73.3899 15.4482 73.3899 15.8117 73.3899 16.1863C73.0823 16.1863 72.7747 16.1863 72.4577 16.1863C72.4857 17.1651 72.5137 18.1439 72.5425 19.1524C72.962 19.1105 72.962 19.1105 73.3899 19.0677C73.4183 19.2336 73.4466 19.3996 73.4747 19.5656C73.4904 19.658 73.5061 19.7504 73.5223 19.8456C73.5594 20.0846 73.5594 20.0846 73.5594 20.2541C72.9264 20.4917 72.1977 20.5615 71.5573 20.3018C71.1827 20.066 71.1127 19.7371 71.017 19.3219C70.9879 19.0672 70.987 18.8177 70.9922 18.5615C70.9926 18.493 70.9929 18.4245 70.9933 18.3539C70.9947 18.138 70.9979 17.9223 71.0012 17.7064C71.0024 17.5589 71.0036 17.4113 71.0046 17.2637C71.0074 16.9045 71.0118 16.5454 71.017 16.1863C70.8213 16.1863 70.6255 16.1863 70.4238 16.1863C70.4238 15.8228 70.4238 15.4592 70.4238 15.0846C70.6196 15.0846 70.8154 15.0846 71.017 15.0846C71.017 14.7211 71.017 14.3575 71.017 13.9829C71.2412 13.8556 71.4654 13.7285 71.6897 13.6016C71.7537 13.5652 71.8176 13.5288 71.8835 13.4913C71.9444 13.4569 72.0053 13.4225 72.0681 13.3871C72.1245 13.3551 72.1808 13.3232 72.2389 13.2902C72.373 13.2202 72.373 13.2202 72.4577 13.2202Z" fill="#121212"/>
<path d="M151.187 13.1357C151.662 13.1357 152.137 13.1357 152.627 13.1357C152.627 15.5129 152.627 17.89 152.627 20.3391C152.152 20.3391 151.676 20.3391 151.187 20.3391C151.187 17.962 151.187 15.5849 151.187 13.1357Z" fill="#121212"/>
<path d="M121.864 13.1357C122.34 13.1357 122.815 13.1357 123.305 13.1357C123.305 15.5129 123.305 17.89 123.305 20.3391C122.83 20.3391 122.354 20.3391 121.864 20.3391C121.864 17.962 121.864 15.5849 121.864 13.1357Z" fill="#121212"/>
<path d="M94.6187 14.9416C94.6825 14.9483 94.7463 14.9549 94.812 14.9618C95.011 15.0021 95.1624 15.071 95.339 15.1693C95.2485 15.6027 95.15 16.0229 95.0001 16.4405C94.9306 16.4305 94.8611 16.4204 94.7895 16.4101C94.6982 16.3992 94.6069 16.3882 94.5128 16.377C94.4223 16.3652 94.3319 16.3534 94.2387 16.3412C93.9797 16.3339 93.9797 16.3339 93.7911 16.4869C93.4658 16.947 93.4479 17.4696 93.4396 18.0133C93.4379 18.0802 93.4363 18.1471 93.4346 18.216C93.4296 18.4275 93.4256 18.639 93.4217 18.8505C93.4184 18.9948 93.4151 19.139 93.4117 19.2833C93.4035 19.6352 93.3967 19.987 93.3899 20.3388C92.9145 20.3388 92.439 20.3388 91.9492 20.3388C91.9492 18.6049 91.9492 16.871 91.9492 15.0846C92.3967 15.0846 92.8441 15.0846 93.3052 15.0846C93.3331 15.1965 93.3611 15.3083 93.3899 15.4236C93.4668 15.3554 93.5437 15.2873 93.6229 15.217C93.9396 14.9363 94.2036 14.894 94.6187 14.9416Z" fill="#121212"/>
<path d="M119.068 15.085C119.571 15.085 120.075 15.085 120.593 15.085C120.593 16.8189 120.593 18.5528 120.593 20.3392C120.09 20.3392 119.587 20.3392 119.068 20.3392C119.068 18.6053 119.068 16.8714 119.068 15.085Z" fill="#121212"/>
<path d="M62.627 15.085C63.1303 15.085 63.6337 15.085 64.1524 15.085C64.1524 16.8189 64.1524 18.5528 64.1524 20.3392C63.649 20.3392 63.1456 20.3392 62.627 20.3392C62.627 18.6053 62.627 16.8714 62.627 15.085Z" fill="#121212"/>
<path d="M147.537 24.8991C147.611 24.8979 147.686 24.8967 147.762 24.8955C147.966 24.915 147.966 24.915 148.221 25.0845C148.249 25.0286 148.276 24.9727 148.305 24.915C148.475 24.9114 148.644 24.9116 148.814 24.915C149.02 25.1211 148.913 25.616 148.914 25.9038C148.914 25.9944 148.914 25.9944 148.914 26.0867C148.914 26.2679 148.916 26.449 148.918 26.6301C148.924 28.1484 148.924 28.1484 148.528 28.6386C148.132 28.9497 147.882 29.0062 147.373 29.004C147.27 29.0045 147.167 29.0049 147.061 29.0053C146.801 28.9845 146.658 28.9502 146.441 28.8133C146.441 28.6455 146.441 28.4778 146.441 28.3049C146.541 28.3328 146.64 28.3608 146.743 28.3896C147.174 28.4956 147.543 28.5553 147.956 28.3578C148.144 28.2347 148.144 28.2347 148.221 28.0506C148.224 27.8812 148.224 27.7116 148.221 27.5422C148.166 27.5841 148.112 27.6261 148.056 27.6693C147.707 27.8403 147.417 27.8472 147.034 27.7964C146.676 27.6484 146.525 27.4638 146.356 27.1184C146.192 26.5661 146.219 26.0161 146.442 25.4851C146.693 25.0476 147.062 24.9026 147.537 24.8991ZM146.949 25.6778C146.749 26.0783 146.745 26.4399 146.865 26.8642C147.034 27.1594 147.13 27.2628 147.453 27.3727C147.763 27.3727 147.893 27.3076 148.136 27.1184C148.412 26.7046 148.364 26.2457 148.305 25.7625C148.148 25.4703 148.148 25.4703 147.882 25.3388C147.456 25.259 147.243 25.3683 146.949 25.6778Z" fill="#121212"/>
<path d="M100.932 24.9154C101.016 24.9714 101.1 25.0273 101.186 25.0849C101.214 25.029 101.242 24.9731 101.271 24.9154C101.439 24.9154 101.607 24.9154 101.78 24.9154C101.788 25.3632 101.794 25.8109 101.798 26.2587C101.8 26.4109 101.802 26.563 101.805 26.7151C101.809 26.9346 101.811 27.1539 101.813 27.3734C101.814 27.4408 101.816 27.5081 101.818 27.5776C101.818 28.0578 101.718 28.3346 101.441 28.729C101.071 28.9817 100.771 29.0159 100.328 29.0097C100.227 29.0094 100.125 29.0091 100.02 29.0087C99.7656 28.9851 99.6208 28.9474 99.4067 28.8137C99.4067 28.6459 99.4067 28.4781 99.4067 28.3053C99.4906 28.3332 99.5745 28.3612 99.6609 28.39C100.069 28.5058 100.468 28.541 100.879 28.4112C101.054 28.2765 101.115 28.1753 101.186 27.9663C101.201 27.7402 101.201 27.7402 101.186 27.5425C101.132 27.5845 101.078 27.6264 101.022 27.6697C100.672 27.8413 100.384 27.8563 99.9999 27.7968C99.6635 27.641 99.5257 27.5138 99.3325 27.1983C99.1424 26.6678 99.1451 26.0717 99.3749 25.5563C99.7395 24.9397 100.253 24.8149 100.932 24.9154ZM100.101 25.4769C99.7859 25.8184 99.728 26.0679 99.7457 26.5256C99.7841 26.8249 99.8322 27.0088 100.053 27.2195C100.33 27.3954 100.33 27.3954 100.646 27.3836C100.991 27.2688 101.077 27.1671 101.271 26.8646C101.324 26.5928 101.324 26.5928 101.313 26.3084C101.314 26.2139 101.315 26.1194 101.316 26.0221C101.262 25.7107 101.181 25.6131 100.932 25.4239C100.581 25.3218 100.421 25.2918 100.101 25.4769Z" fill="#121212"/>
<path d="M117.368 24.8991C117.442 24.8979 117.516 24.8967 117.593 24.8955C117.797 24.915 117.797 24.915 118.051 25.0845C118.079 25.0286 118.107 24.9727 118.136 24.915C118.304 24.915 118.471 24.915 118.644 24.915C118.653 25.3628 118.659 25.8105 118.663 26.2583C118.665 26.4105 118.667 26.5626 118.67 26.7147C118.674 26.9342 118.676 27.1535 118.677 27.373C118.679 27.4404 118.681 27.5078 118.683 27.5772C118.683 28.0574 118.583 28.3342 118.305 28.7286C117.936 28.9813 117.635 29.0155 117.193 29.0093C117.091 29.009 116.99 29.0087 116.885 29.0083C116.63 28.9847 116.485 28.947 116.271 28.8133C116.271 28.6455 116.271 28.4778 116.271 28.3049C116.355 28.3328 116.439 28.3608 116.526 28.3896C116.933 28.5054 117.333 28.5406 117.744 28.4108C117.919 28.2761 117.979 28.1749 118.051 27.9659C118.065 27.7399 118.065 27.7399 118.051 27.5422C117.997 27.5841 117.943 27.6261 117.887 27.6693C117.537 27.8408 117.248 27.8453 116.865 27.7964C116.547 27.6833 116.41 27.5243 116.245 27.2403C116.009 26.7185 116.028 26.1852 116.202 25.646C116.424 25.123 116.821 24.9032 117.368 24.8991ZM116.78 25.6778C116.58 26.0783 116.575 26.4399 116.695 26.8642C116.865 27.1594 116.96 27.2628 117.283 27.3727C117.594 27.3727 117.723 27.3076 117.966 27.1184C118.242 26.7046 118.194 26.2457 118.136 25.7625C117.978 25.4703 117.978 25.4703 117.712 25.3388C117.287 25.259 117.073 25.3683 116.78 25.6778Z" fill="#121212"/>
<path d="M89.2371 24.9154C89.5504 25.0582 89.711 25.2683 89.8621 25.5775C89.9151 25.8476 89.9151 25.8476 89.9151 26.5255C89.2998 26.5255 88.6846 26.5255 88.0507 26.5255C88.2371 27.0766 88.2371 27.0766 88.4479 27.2459C88.8967 27.3429 89.3381 27.2251 89.7456 27.034C89.7456 27.2018 89.7456 27.3696 89.7456 27.5425C89.2831 27.8425 88.8396 27.8691 88.3049 27.7967C87.9675 27.628 87.7354 27.4441 87.5422 27.1188C87.3766 26.5676 87.406 26.0153 87.6276 25.4854C87.9821 24.8686 88.6011 24.8364 89.2371 24.9154ZM88.1354 25.6781C88.1075 25.79 88.0795 25.9018 88.0507 26.0171C88.4981 26.0171 88.9456 26.0171 89.4066 26.0171C89.3227 25.8213 89.2388 25.6255 89.1524 25.4239C88.6946 25.2628 88.4618 25.3229 88.1354 25.6781Z" fill="#121212"/>
<path d="M130.763 23.644C130.93 23.644 131.098 23.644 131.271 23.644C131.299 24.1474 131.327 24.6508 131.356 25.1695C131.468 25.0856 131.58 25.0017 131.695 24.9152C132.104 24.8414 132.443 24.8562 132.802 25.0688C133.07 25.3718 133.061 25.6258 133.059 26.0153C133.059 26.1139 133.059 26.2125 133.058 26.314C133.058 26.417 133.057 26.52 133.056 26.626C133.056 26.73 133.055 26.8339 133.055 26.941C133.054 27.198 133.053 27.4549 133.051 27.7118C132.883 27.7118 132.715 27.7118 132.542 27.7118C132.541 27.6546 132.54 27.5973 132.539 27.5383C132.532 27.2783 132.524 27.0184 132.516 26.7584C132.514 26.6683 132.512 26.5782 132.51 26.4853C132.506 26.3551 132.506 26.3551 132.501 26.2222C132.499 26.1423 132.497 26.0624 132.494 25.9801C132.452 25.7312 132.369 25.6108 132.203 25.4237C131.794 25.4404 131.794 25.4404 131.466 25.6544C131.337 25.8814 131.32 26.0281 131.313 26.2884C131.308 26.4129 131.308 26.4129 131.303 26.54C131.302 26.626 131.3 26.7121 131.298 26.8008C131.295 26.8882 131.292 26.9756 131.289 27.0657C131.282 27.281 131.276 27.4964 131.271 27.7118C131.103 27.7118 130.936 27.7118 130.763 27.7118C130.763 26.3695 130.763 25.0271 130.763 23.644Z" fill="#121212"/>
<path d="M107.458 23.644C107.625 23.644 107.793 23.644 107.966 23.644C107.994 24.1474 108.022 24.6508 108.051 25.1695C108.163 25.0856 108.274 25.0017 108.39 24.9152C108.678 24.859 108.948 24.8638 109.237 24.9152C109.477 25.1008 109.611 25.2398 109.746 25.5084C109.753 25.6745 109.755 25.8408 109.754 26.007C109.754 26.1059 109.753 26.2047 109.753 26.3066C109.752 26.4103 109.752 26.5139 109.751 26.6207C109.751 26.7251 109.75 26.8294 109.75 26.9369C109.749 27.1952 109.747 27.4535 109.746 27.7118C109.578 27.7118 109.41 27.7118 109.237 27.7118C109.236 27.6546 109.235 27.5973 109.233 27.5383C109.227 27.2783 109.219 27.0184 109.211 26.7584C109.209 26.6683 109.207 26.5782 109.205 26.4853C109.2 26.3551 109.2 26.3551 109.196 26.2222C109.194 26.1423 109.191 26.0624 109.189 25.9801C109.147 25.7312 109.064 25.6108 108.898 25.4237C108.489 25.4404 108.489 25.4404 108.161 25.6544C108.031 25.8814 108.015 26.0281 108.007 26.2884C108.003 26.4129 108.003 26.4129 107.998 26.54C107.996 26.626 107.994 26.7121 107.992 26.8008C107.99 26.8882 107.987 26.9756 107.984 27.0657C107.977 27.281 107.971 27.4964 107.966 27.7118C107.798 27.7118 107.63 27.7118 107.458 27.7118C107.458 26.3695 107.458 25.0271 107.458 23.644Z" fill="#121212"/>
<path d="M85.254 23.9829C85.254 24.1507 85.254 24.3185 85.254 24.4914C85.1894 24.4774 85.1247 24.4634 85.0581 24.449C84.2663 24.3406 84.2663 24.3406 83.5168 24.5549C83.1781 24.8597 82.9872 25.0996 82.9457 25.5652C82.932 26.1347 82.9477 26.4953 83.3049 26.949C83.7639 27.285 84.1974 27.2483 84.7456 27.2032C85.0469 27.1318 85.0469 27.1318 85.254 27.0337C85.254 27.2015 85.254 27.3693 85.254 27.5422C84.6857 27.8522 84.0749 27.9173 83.4456 27.7408C82.9728 27.5303 82.5896 27.1813 82.3886 26.6991C82.1982 26.026 82.2335 25.3739 82.5422 24.7456C82.8195 24.3244 83.1265 23.9954 83.6174 23.8468C84.1844 23.7501 84.7264 23.7408 85.254 23.9829Z" fill="#121212"/>
<path d="M159.068 24.915C159.45 25.1062 159.553 25.2065 159.746 25.593C159.774 25.9006 159.802 26.2083 159.831 26.5252C159.187 26.5252 158.544 26.5252 157.881 26.5252C157.965 26.693 158.049 26.8608 158.136 27.0337C158.136 27.0896 158.136 27.1455 158.136 27.2032C158.7 27.3116 159.052 27.2719 159.576 27.0337C159.576 27.2294 159.576 27.4252 159.576 27.6269C159.084 27.8489 158.558 27.9038 158.037 27.7381C157.794 27.6141 157.632 27.463 157.463 27.2508C157.296 26.6914 157.289 26.1003 157.474 25.5453C157.914 24.9533 158.362 24.836 159.068 24.915ZM157.966 25.7625C157.938 25.8464 157.91 25.9303 157.881 26.0167C158.329 26.0167 158.776 26.0167 159.237 26.0167C159.196 25.6099 159.196 25.6099 159.004 25.4394C158.522 25.1848 158.295 25.3693 157.966 25.7625Z" fill="#121212"/>
<path d="M125 23.8984C125.671 23.8984 126.342 23.8984 127.034 23.8984C127.034 24.0383 127.034 24.1781 127.034 24.3222C126.531 24.3222 126.027 24.3222 125.508 24.3222C125.508 24.7137 125.508 25.1052 125.508 25.5086C125.956 25.5086 126.403 25.5086 126.864 25.5086C126.864 25.6764 126.864 25.8442 126.864 26.0171C126.417 26.0171 125.969 26.0171 125.508 26.0171C125.508 26.4366 125.508 26.8561 125.508 27.2883C126.04 27.2883 126.571 27.2883 127.119 27.2883C127.119 27.4281 127.119 27.5679 127.119 27.712C126.419 27.712 125.72 27.712 125 27.712C125 26.4535 125 25.195 125 23.8984Z" fill="#121212"/>
<path d="M106.78 23.9831C106.78 24.1509 106.78 24.3187 106.78 24.4916C106.689 24.4713 106.689 24.4713 106.597 24.4506C106.115 24.3631 105.611 24.3152 105.164 24.534C105.083 24.5969 105.083 24.5969 105 24.6611C104.944 24.6611 104.888 24.6611 104.83 24.6611C104.572 25.2706 104.412 25.7871 104.576 26.4408C104.768 26.8101 104.947 27.0533 105.339 27.2035C105.846 27.2523 106.307 27.2386 106.78 27.034C106.78 27.2298 106.78 27.4255 106.78 27.6272C106.252 27.8618 105.632 27.8844 105.071 27.7543C104.561 27.5571 104.228 27.1723 103.983 26.695C103.799 26.1092 103.808 25.3779 104.059 24.8147C104.337 24.3577 104.714 24.0128 105.227 23.8501C105.746 23.7538 106.314 23.7051 106.78 23.9831Z" fill="#121212"/>
<path d="M121.266 25.0104C121.499 25.2225 121.591 25.3775 121.695 25.6777C121.695 25.9574 121.695 26.2371 121.695 26.5252C121.08 26.5252 120.464 26.5252 119.831 26.5252C120.013 27.0843 120.013 27.0843 120.246 27.2416C120.449 27.2946 120.597 27.2938 120.805 27.2667C120.869 27.2593 120.933 27.2519 120.998 27.2442C121.196 27.2011 121.349 27.1313 121.525 27.0337C121.536 27.2773 121.536 27.2773 121.525 27.5421C121.256 27.8113 120.973 27.8107 120.604 27.8176C120.226 27.8115 119.973 27.7722 119.661 27.5421C119.287 27.0889 119.275 26.6825 119.295 26.1041C119.347 25.6184 119.547 25.3107 119.915 24.9998C120.357 24.8526 120.83 24.8433 121.266 25.0104ZM119.915 25.7625C119.887 25.8464 119.859 25.9303 119.831 26.0167C120.278 26.0167 120.725 26.0167 121.186 26.0167C121.145 25.6099 121.145 25.6099 120.953 25.4394C120.471 25.1848 120.245 25.3693 119.915 25.7625Z" fill="#121212"/>
<path d="M111.949 24.9151C112.233 25.0657 112.334 25.1691 112.467 25.458C112.575 25.8961 112.56 26.3196 112.553 26.7689C112.552 26.8596 112.551 26.9502 112.551 27.0437C112.549 27.2664 112.546 27.489 112.542 27.7117C112.26 27.7117 111.977 27.7117 111.695 27.7117C111.611 27.7536 111.611 27.7536 111.525 27.7964C111.081 27.8256 110.778 27.8446 110.424 27.5422C110.263 27.2795 110.254 27.1263 110.265 26.8166C110.348 26.4914 110.41 26.3822 110.678 26.1863C111.088 26.0052 111.508 25.9693 111.949 25.932C111.857 25.6566 111.857 25.6566 111.695 25.4236C111.525 25.4258 111.525 25.4258 111.329 25.45C111.263 25.4567 111.197 25.4634 111.129 25.4702C110.925 25.5096 110.774 25.5767 110.593 25.6778C110.593 25.482 110.593 25.2863 110.593 25.0846C111.047 24.879 111.457 24.8559 111.949 24.9151ZM111.446 26.4299C111.37 26.4437 111.294 26.4574 111.216 26.4716C111.003 26.5114 111.003 26.5114 110.848 26.6947C110.812 26.949 110.812 26.949 110.848 27.2032C111.085 27.3979 111.085 27.3979 111.351 27.3621C111.654 27.2754 111.771 27.2095 111.949 26.949C111.978 26.6382 111.978 26.6382 111.949 26.3558C111.78 26.3558 111.612 26.3989 111.446 26.4299Z" fill="#121212"/>
<path d="M134.793 24.8939C134.872 24.8935 134.951 24.893 135.032 24.8926C135.276 24.9173 135.398 24.9346 135.593 25.0846C135.914 25.61 135.877 26.1309 135.863 26.7318C135.862 26.8733 135.862 26.8733 135.86 27.0177C135.857 27.2491 135.853 27.4804 135.847 27.7117C135.68 27.7117 135.512 27.7117 135.339 27.7117C135.311 27.6558 135.283 27.5998 135.254 27.5422C135.198 27.5842 135.142 27.6261 135.085 27.6693C134.759 27.8322 134.51 27.8478 134.152 27.7964C133.909 27.7064 133.909 27.7064 133.729 27.5422C133.59 27.2219 133.546 27.0236 133.607 26.6789C133.753 26.3928 133.886 26.2802 134.152 26.1015C134.435 26.0313 134.435 26.0313 134.73 25.9956C134.828 25.9829 134.927 25.9703 135.028 25.9572C135.103 25.9489 135.177 25.9406 135.254 25.932C135.162 25.6566 135.162 25.6566 135 25.4236C134.83 25.4258 134.83 25.4258 134.634 25.45C134.568 25.4567 134.502 25.4634 134.434 25.4702C134.23 25.5097 134.079 25.5767 133.898 25.6778C133.898 25.482 133.898 25.2863 133.898 25.0846C134.208 24.9427 134.453 24.892 134.793 24.8939ZM134.746 26.4299C134.67 26.4437 134.595 26.4574 134.518 26.4716C134.307 26.5119 134.307 26.5119 134.152 26.6947C134.11 26.903 134.11 26.903 134.152 27.1185C134.283 27.2904 134.283 27.2904 134.491 27.3727C134.78 27.3668 134.937 27.3447 135.153 27.1503C135.284 26.8888 135.311 26.6449 135.339 26.3558C135.134 26.3558 134.947 26.3918 134.746 26.4299Z" fill="#121212"/>
<path d="M91.9494 24.9153C92.2098 25.0685 92.3248 25.1577 92.4578 25.4238C92.4651 25.596 92.4669 25.7685 92.4661 25.9408C92.4658 26.0435 92.4656 26.1462 92.4653 26.252C92.4646 26.3597 92.4639 26.4674 92.4631 26.5784C92.4628 26.6868 92.4624 26.7952 92.462 26.9068C92.461 27.1752 92.4596 27.4435 92.4578 27.7119C92.2036 27.7119 91.9494 27.7119 91.6951 27.7119C91.6112 27.7538 91.6112 27.7538 91.5256 27.7966C91.1492 27.8418 90.851 27.8407 90.5087 27.6695C90.2775 27.3805 90.2326 27.1459 90.2545 26.7797C90.3332 26.5013 90.3965 26.3385 90.65 26.1865C91.0689 26.0126 91.4998 25.9624 91.9494 25.9322C91.8572 25.6568 91.8572 25.6568 91.6951 25.4238C91.2774 25.435 90.8872 25.4948 90.5087 25.678C90.4822 25.4396 90.4822 25.4396 90.5087 25.1695C90.9483 24.8268 91.4157 24.8466 91.9494 24.9153ZM91.4462 26.4301C91.3703 26.4439 91.2943 26.4576 91.2161 26.4718C91.0029 26.5116 91.0029 26.5116 90.8477 26.6949C90.8124 26.9492 90.8124 26.9492 90.8477 27.2034C91.0856 27.3981 91.0856 27.3981 91.3508 27.3623C91.6544 27.2756 91.7711 27.2097 91.9494 26.9492C91.9777 26.6384 91.9777 26.6384 91.9494 26.356C91.7798 26.356 91.6122 26.3992 91.4462 26.4301Z" fill="#121212"/>
<path d="M96.356 24.9154C96.5238 24.9154 96.6916 24.9154 96.8644 24.9154C96.8924 24.9993 96.9204 25.0832 96.9492 25.1696C96.9965 25.1284 97.0438 25.0873 97.0925 25.0448C97.4207 24.8277 97.7557 24.8612 98.1356 24.9154C98.442 25.0749 98.5318 25.1818 98.654 25.5033C98.7692 25.9352 98.7469 26.3733 98.7394 26.8169C98.7387 26.9031 98.7379 26.9894 98.7371 27.0782C98.7351 27.2895 98.7324 27.5007 98.7288 27.712C98.5331 27.712 98.3373 27.712 98.1356 27.712C98.1344 27.6517 98.1331 27.5914 98.1319 27.5293C98.1256 27.2565 98.1174 26.9837 98.1091 26.7109C98.1072 26.6161 98.1053 26.5212 98.1033 26.4234C98.0988 26.287 98.0988 26.287 98.0942 26.1478C98.092 26.064 98.0898 25.9801 98.0875 25.8937C98.0666 25.6762 98.0666 25.6762 97.9396 25.5216C97.7847 25.396 97.7847 25.396 97.5 25.4239C97.2033 25.48 97.2033 25.48 97.0614 25.6685C96.8963 26.0567 96.9007 26.4307 96.8909 26.8486C96.888 26.9316 96.8851 27.0146 96.8821 27.1001C96.8752 27.304 96.8693 27.508 96.8644 27.712C96.6966 27.712 96.5288 27.712 96.356 27.712C96.356 26.7891 96.356 25.8662 96.356 24.9154Z" fill="#121212"/>
<path d="M113.22 24.9152C113.388 24.9152 113.556 24.9152 113.729 24.9152C113.757 24.9991 113.785 25.083 113.813 25.1695C113.868 25.1275 113.922 25.0856 113.978 25.0423C114.326 24.8715 114.618 24.8535 115 24.9152C115.273 25.0663 115.387 25.1763 115.519 25.4581C115.626 25.8963 115.611 26.3199 115.604 26.769C115.603 26.8597 115.602 26.9504 115.601 27.0438C115.599 27.2665 115.597 27.4892 115.593 27.7118C115.425 27.7118 115.258 27.7118 115.085 27.7118C115.08 27.6025 115.076 27.4931 115.072 27.3805C115.066 27.2349 115.059 27.0894 115.053 26.9438C115.05 26.872 115.048 26.8002 115.045 26.7262C115.025 26.2935 114.968 25.9196 114.83 25.5084C114.55 25.4361 114.55 25.4361 114.237 25.4237C113.988 25.6076 113.912 25.7222 113.813 26.0169C113.801 26.1485 113.793 26.2805 113.787 26.4125C113.783 26.4882 113.78 26.5638 113.776 26.6418C113.771 26.7598 113.771 26.7598 113.766 26.8803C113.762 26.96 113.758 27.0397 113.755 27.1218C113.746 27.3184 113.737 27.5151 113.729 27.7118C113.561 27.7118 113.393 27.7118 113.22 27.7118C113.22 26.789 113.22 25.8661 113.22 24.9152Z" fill="#121212"/>
<path d="M143.39 24.9152C143.557 24.9152 143.725 24.9152 143.898 24.9152C143.926 24.9991 143.954 25.083 143.983 25.1695C144.037 25.1275 144.091 25.0856 144.147 25.0423C144.496 24.8715 144.787 24.8535 145.169 24.9152C145.442 25.0663 145.557 25.1763 145.688 25.4581C145.795 25.8963 145.78 26.3199 145.773 26.769C145.772 26.8597 145.772 26.9504 145.771 27.0438C145.769 27.2665 145.766 27.4892 145.763 27.7118C145.595 27.7118 145.427 27.7118 145.254 27.7118C145.252 27.6632 145.251 27.6145 145.249 27.5643C145.241 27.3416 145.232 27.1189 145.222 26.8962C145.22 26.8196 145.217 26.743 145.214 26.6641C145.196 26.2496 145.159 25.8976 145 25.5084C144.72 25.4361 144.72 25.4361 144.407 25.4237C144.157 25.6076 144.081 25.7222 143.983 26.0169C143.97 26.1485 143.962 26.2805 143.956 26.4125C143.953 26.4882 143.949 26.5638 143.945 26.6418C143.94 26.7598 143.94 26.7598 143.935 26.8803C143.932 26.96 143.928 27.0397 143.924 27.1218C143.915 27.3184 143.906 27.5151 143.898 27.7118C143.73 27.7118 143.563 27.7118 143.39 27.7118C143.39 26.789 143.39 25.8661 143.39 24.9152Z" fill="#121212"/>
<path d="M136.525 24.9152C136.693 24.9152 136.861 24.9152 137.034 24.9152C137.062 24.9991 137.09 25.083 137.119 25.1695C137.173 25.1275 137.227 25.0856 137.283 25.0423C137.632 24.8715 137.923 24.8535 138.305 24.9152C138.578 25.0663 138.692 25.1763 138.824 25.4581C138.931 25.8963 138.916 26.3199 138.909 26.769C138.908 26.8597 138.907 26.9504 138.907 27.0438C138.905 27.2665 138.902 27.4892 138.898 27.7118C138.73 27.7118 138.563 27.7118 138.39 27.7118C138.388 27.6601 138.386 27.6085 138.385 27.5552C138.377 27.3196 138.367 27.084 138.358 26.8485C138.355 26.7672 138.353 26.6858 138.35 26.602C138.347 26.5231 138.344 26.4442 138.34 26.3629C138.336 26.2543 138.336 26.2543 138.332 26.1436C138.302 25.91 138.231 25.7229 138.136 25.5084C137.855 25.4361 137.855 25.4361 137.542 25.4237C137.293 25.6076 137.217 25.7222 137.119 26.0169C137.106 26.1485 137.098 26.2805 137.092 26.4125C137.088 26.4882 137.085 26.5638 137.081 26.6418C137.076 26.7598 137.076 26.7598 137.071 26.8803C137.067 26.96 137.064 27.0397 137.06 27.1218C137.051 27.3184 137.042 27.5151 137.034 27.7118C136.866 27.7118 136.698 27.7118 136.525 27.7118C136.525 26.789 136.525 25.8661 136.525 24.9152Z" fill="#121212"/>
<path d="M127.712 24.9153C127.88 24.9153 128.048 24.9153 128.22 24.9153C128.248 24.9992 128.276 25.0831 128.305 25.1696C128.352 25.1285 128.4 25.0874 128.448 25.0451C128.776 24.828 129.113 24.8485 129.492 24.9153C129.775 25.1295 129.888 25.2576 130 25.5933C130.007 25.7559 130.009 25.9188 130.008 26.0816C130.008 26.1763 130.008 26.2711 130.007 26.3687C130.007 26.4677 130.006 26.5666 130.005 26.6685C130.005 26.7684 130.005 26.8683 130.004 26.9712C130.003 27.2181 130.002 27.465 130 27.7119C129.832 27.7119 129.664 27.7119 129.492 27.7119C129.49 27.6547 129.489 27.5974 129.488 27.5384C129.482 27.2784 129.473 27.0185 129.465 26.7585C129.463 26.6684 129.461 26.5783 129.459 26.4854C129.455 26.3552 129.455 26.3552 129.45 26.2223C129.448 26.1424 129.446 26.0625 129.443 25.9802C129.402 25.7313 129.318 25.6109 129.153 25.4238C128.743 25.4405 128.743 25.4405 128.415 25.6544C128.286 25.8815 128.269 26.0282 128.262 26.2885C128.259 26.3715 128.256 26.4545 128.253 26.5401C128.251 26.6261 128.249 26.7122 128.247 26.8009C128.244 26.8883 128.241 26.9757 128.238 27.0657C128.231 27.2811 128.225 27.4965 128.22 27.7119C128.053 27.7119 127.885 27.7119 127.712 27.7119C127.712 26.7891 127.712 25.8662 127.712 24.9153Z" fill="#121212"/>
<path d="M161.78 24.9152C161.836 24.9432 161.891 24.9712 161.949 25C161.949 25.1678 161.949 25.3356 161.949 25.5084C161.884 25.5013 161.818 25.4942 161.751 25.4869C161.666 25.4783 161.581 25.4697 161.494 25.4608C161.409 25.4519 161.324 25.4431 161.237 25.434C161.018 25.4058 161.018 25.4058 160.847 25.5084C160.858 25.7139 160.858 25.7139 160.932 25.9322C161.117 26.0659 161.117 26.0659 161.345 26.1546C161.862 26.3791 161.862 26.3791 162.034 26.6101C162.091 26.8698 162.086 27.1123 162.034 27.3728C161.797 27.6222 161.579 27.7871 161.232 27.8108C161.151 27.8114 161.069 27.8119 160.985 27.8125C160.904 27.8137 160.823 27.8149 160.739 27.8161C160.506 27.7964 160.369 27.7465 160.169 27.6271C160.169 27.4593 160.169 27.2915 160.169 27.1186C160.257 27.1466 160.344 27.1745 160.434 27.2034C160.775 27.3009 161.112 27.3675 161.441 27.2034C161.43 26.9979 161.43 26.9979 161.356 26.7796C161.171 26.6459 161.171 26.6459 160.943 26.5572C160.664 26.4361 160.447 26.3411 160.254 26.1017C160.164 25.8047 160.144 25.6539 160.265 25.3654C160.684 24.8484 161.151 24.8626 161.78 24.9152Z" fill="#121212"/>
<path d="M154.576 24.915C154.772 24.915 154.968 24.915 155.169 24.915C155.393 25.5583 155.617 26.2015 155.847 26.8642C156.057 26.3919 156.25 25.9446 156.419 25.4606C156.456 25.3574 156.492 25.2541 156.529 25.1478C156.556 25.071 156.583 24.9942 156.61 24.915C156.806 24.915 157.002 24.915 157.203 24.915C157.029 25.543 156.807 26.141 156.557 26.7424C156.523 26.8268 156.488 26.9111 156.452 26.9981C156.198 27.6152 156.198 27.6152 156.102 27.7116C155.932 27.7151 155.763 27.7153 155.593 27.7116C155.335 27.106 155.088 26.4966 154.846 25.8843C154.82 25.8177 154.793 25.7512 154.766 25.6826C154.741 25.6197 154.716 25.5568 154.691 25.492C154.669 25.4359 154.647 25.3798 154.624 25.322C154.576 25.1693 154.576 25.1693 154.576 24.915Z" fill="#121212"/>
<path d="M93.8983 24.1523C93.8983 24.404 93.8983 24.6557 93.8983 24.9151C94.122 24.9151 94.3458 24.9151 94.5763 24.9151C94.5763 25.0829 94.5763 25.2506 94.5763 25.4235C94.3525 25.4235 94.1288 25.4235 93.8983 25.4235C93.9263 26.0108 93.9542 26.5981 93.983 27.2032C94.1788 27.2312 94.3746 27.2591 94.5763 27.2879C94.5799 27.4291 94.5797 27.5705 94.5763 27.7117C94.4214 27.8666 94.2074 27.8258 94.0003 27.8408C93.6816 27.7651 93.5775 27.6403 93.3898 27.3727C93.3381 27.0374 93.3499 26.7098 93.3633 26.3716C93.3653 26.2806 93.3672 26.1895 93.3691 26.0957C93.3741 25.8715 93.3811 25.6476 93.3898 25.4235C93.222 25.4235 93.0542 25.4235 92.8813 25.4235C92.8813 25.2557 92.8813 25.0879 92.8813 24.9151C93.0491 24.9151 93.2169 24.9151 93.3898 24.9151C93.3898 24.6913 93.3898 24.4676 93.3898 24.2371C93.5657 24.1902 93.7156 24.1523 93.8983 24.1523Z" fill="#121212"/>
<path d="M140.848 24.9045C140.984 24.9041 140.984 24.9041 141.123 24.9038C141.356 24.9151 141.356 24.9151 141.526 24.9998C141.526 25.1676 141.526 25.3354 141.526 25.5083C141.463 25.4982 141.401 25.4882 141.337 25.4778C140.823 25.405 140.823 25.405 140.334 25.5401C140.104 25.852 140.015 26.1379 140 26.5252C140.059 26.8196 140.169 27.0425 140.397 27.2456C140.781 27.3286 141.156 27.2415 141.526 27.1185C141.526 27.2863 141.526 27.454 141.526 27.6269C141.136 27.8508 140.778 27.8492 140.339 27.7964C139.959 27.6827 139.736 27.4879 139.539 27.1449C139.35 26.7041 139.317 26.2873 139.469 25.8297C139.758 25.1937 140.152 24.9028 140.848 24.9045Z" fill="#121212"/>
<path d="M151.187 23.8984C151.354 23.8984 151.522 23.8984 151.695 23.8984C151.695 25.0171 151.695 26.1357 151.695 27.2883C152.198 27.2883 152.702 27.2883 153.22 27.2883C153.22 27.4281 153.22 27.5679 153.22 27.712C152.549 27.712 151.878 27.712 151.187 27.712C151.187 26.4535 151.187 25.195 151.187 23.8984Z" fill="#121212"/>
<path d="M85.8477 24.9151C86.0155 24.9151 86.1832 24.9151 86.3561 24.9151C86.3841 24.999 86.4121 25.0829 86.4409 25.1693C86.4846 25.1274 86.5283 25.0854 86.5733 25.0422C86.8482 24.873 87.0563 24.8968 87.3731 24.9151C87.3731 25.1109 87.3731 25.3066 87.3731 25.5083C87.1494 25.5083 86.9256 25.5083 86.6951 25.5083C86.4104 25.9678 86.3957 26.3715 86.3826 26.896C86.3797 26.9746 86.3768 27.0531 86.3738 27.1341C86.3669 27.3266 86.361 27.5191 86.3561 27.7117C86.1883 27.7117 86.0205 27.7117 85.8477 27.7117C85.8477 26.7888 85.8477 25.866 85.8477 24.9151Z" fill="#121212"/>
<path d="M119.068 13.1357C119.571 13.1357 120.075 13.1357 120.593 13.1357C120.593 13.5552 120.593 13.9747 120.593 14.4069C120.09 14.4069 119.587 14.4069 119.068 14.4069C119.068 13.9874 119.068 13.5679 119.068 13.1357Z" fill="#121212"/>
<path d="M62.627 13.1357C63.1303 13.1357 63.6337 13.1357 64.1524 13.1357C64.1524 13.5552 64.1524 13.9747 64.1524 14.4069C63.649 14.4069 63.1456 14.4069 62.627 14.4069C62.627 13.9874 62.627 13.5679 62.627 13.1357Z" fill="#121212"/>
<path d="M153.644 24.915C153.812 24.915 153.98 24.915 154.153 24.915C154.153 25.8379 154.153 26.7608 154.153 27.7116C153.985 27.7116 153.817 27.7116 153.644 27.7116C153.644 26.7888 153.644 25.8659 153.644 24.915Z" fill="#121212"/>
<path d="M142.119 24.915C142.286 24.915 142.454 24.915 142.627 24.915C142.627 25.8379 142.627 26.7608 142.627 27.7116C142.459 27.7116 142.292 27.7116 142.119 27.7116C142.119 26.7888 142.119 25.8659 142.119 24.915Z" fill="#121212"/>
<path d="M95.085 24.915C95.2528 24.915 95.4206 24.915 95.5934 24.915C95.5934 25.8379 95.5934 26.7608 95.5934 27.7116C95.4256 27.7116 95.2578 27.7116 95.085 27.7116C95.085 26.7888 95.085 25.8659 95.085 24.915Z" fill="#121212"/>
<path d="M122.288 27.0337C122.456 27.0337 122.624 27.0337 122.797 27.0337C122.536 28.0101 122.536 28.0101 122.373 28.4744C122.233 28.4744 122.093 28.4744 121.949 28.4744C122.113 27.498 122.113 27.498 122.288 27.0337Z" fill="#121212"/>
<path d="M78.983 27.1187C79.2347 27.1606 79.2347 27.1606 79.4914 27.2034C79.495 27.3729 79.4949 27.5424 79.4914 27.7119C79.4067 27.7966 79.4067 27.7966 79.1895 27.8019C79.1214 27.8002 79.0532 27.7984 78.983 27.7966C78.8876 27.6006 78.8876 27.6006 78.8135 27.3729C78.8694 27.289 78.9253 27.2051 78.983 27.1187Z" fill="#121212"/>
<path d="M81.356 27.1187C81.5785 27.1504 81.5785 27.1504 81.7797 27.2034C81.8327 27.4047 81.8327 27.4047 81.8645 27.6271C81.8086 27.6831 81.7526 27.739 81.695 27.7966C81.4725 27.7648 81.4725 27.7648 81.2713 27.7119C81.2183 27.5106 81.2183 27.5106 81.1865 27.2881C81.2425 27.2322 81.2984 27.1763 81.356 27.1187Z" fill="#121212"/>
<path d="M80.1695 27.1187C80.3919 27.1504 80.3919 27.1504 80.5932 27.2034C80.6462 27.4047 80.6462 27.4047 80.678 27.6271C80.622 27.6831 80.5661 27.739 80.5085 27.7966C80.286 27.7648 80.286 27.7648 80.0847 27.7119C80.0318 27.5106 80.0318 27.5106 80 27.2881C80.0559 27.2322 80.1119 27.1763 80.1695 27.1187Z" fill="#121212"/>
<path d="M142.119 23.729C142.287 23.729 142.454 23.729 142.627 23.729C142.723 24.1315 142.723 24.1315 142.627 24.3222C142.46 24.3222 142.292 24.3222 142.119 24.3222C142.024 23.9197 142.024 23.9197 142.119 23.729Z" fill="#121212"/>
<path d="M95.2912 23.7129C95.5083 23.7288 95.5083 23.7288 95.6778 23.8983C95.6324 24.1979 95.6324 24.1979 95.5083 24.322C95.2965 24.3326 95.2965 24.3326 95.0846 24.322C94.9999 24.2373 94.9999 24.2373 94.9893 24.0254C95.0034 23.7432 95.0102 23.7345 95.2912 23.7129Z" fill="#121212"/>
<path d="M153.941 23.7183C154.153 23.7289 154.153 23.7289 154.237 23.8136C154.248 24.0255 154.248 24.0255 154.237 24.2373C154.153 24.3221 154.153 24.3221 153.941 24.3327C153.729 24.3221 153.729 24.3221 153.644 24.2373C153.634 24.0255 153.634 24.0255 153.644 23.8136C153.729 23.7289 153.729 23.7289 153.941 23.7183Z" fill="#121212"/>
</g>
<defs>
<clipPath id="clip0_976_5762">
<rect width="162.034" height="40" fill="white"/>
</clipPath>
</defs>
</svg>
