<svg width="104" height="40" viewBox="0 0 104 40" fill="none" xmlns="http://www.w3.org/2000/svg">
<path d="M7.40562 21.5903L9.09237 22.1686L8.77108 22.8112H3.88755V22.3132L5.39759 21.1245V18.265L1.26908 11.5984L0 10.8273L0.321285 10.1847H5.20482V10.6827L3.71084 11.8393L6.92369 17.0602L10.2651 11.8393L7.69478 10.8273L8.01606 10.1847H12.8996V10.6827L11.5823 11.4859L7.40562 18.0241V21.5903ZM16.9256 14.1204C17.6324 14.1204 18.2643 14.3079 18.8212 14.6827C19.3888 15.0468 19.8278 15.5448 20.1385 16.1767C20.4598 16.8085 20.6204 17.5047 20.6204 18.265C20.6204 19.0896 20.3687 19.8661 19.8654 20.5943C19.3619 21.3119 18.7301 21.8902 17.9698 22.3293C17.2201 22.7577 16.4919 22.9718 15.785 22.9718C15.0782 22.9718 14.441 22.7898 13.8734 22.4257C13.3165 22.0509 12.8774 21.5474 12.5561 20.9156C12.2455 20.2838 12.0902 19.5876 12.0902 18.8273C12.0902 18.0027 12.3419 17.2316 12.8453 16.514C13.3486 15.7858 13.9751 15.2075 14.7248 14.7791C15.4852 14.34 16.2188 14.1204 16.9256 14.1204ZM15.9938 15.4698C14.7837 15.4698 14.1786 16.332 14.1786 18.0562C14.1786 19.0735 14.3981 19.9249 14.8372 20.6104C15.2763 21.2851 15.9028 21.6225 16.7168 21.6225C17.9269 21.6225 18.532 20.755 18.532 19.02C18.532 18.0133 18.3124 17.1727 17.8734 16.498C17.4342 15.8125 16.8077 15.4698 15.9938 15.4698ZM31.7748 22.8112H28.7226V21.1405L26.6824 22.8433C26.4575 22.929 26.1631 22.9718 25.7989 22.9718C25.0707 22.9718 24.4924 22.7522 24.0639 22.3132C23.6357 21.8634 23.4214 21.2583 23.4214 20.498V16.6586L21.9916 15.8233V15.3253L24.7386 13.9759H25.3491V19.6947C25.3491 20.2838 25.4402 20.696 25.6222 20.9317C25.8043 21.1674 26.1309 21.2851 26.6021 21.2851C26.9341 21.2851 27.2607 21.2261 27.582 21.1084C27.9033 20.9799 28.2835 20.7336 28.7226 20.3694V16.6586L27.2929 15.8233V15.3253L30.0398 13.9759H30.6503V21.6064L32.0961 22.1686L31.7748 22.8112ZM38.1237 22.8433C37.8774 22.929 37.5775 22.9718 37.2241 22.9718C36.3353 22.9718 35.6819 22.7416 35.2643 22.2811C34.8573 21.8099 34.6538 21.087 34.6538 20.1124V15.4216H32.9189V14.763L35.9711 11.2128H36.5815V14.763H39.4731V15.4216H36.5815V20.3052C36.5815 21.1727 36.9992 21.6064 37.8345 21.6064C38.0594 21.6064 38.2737 21.5582 38.4771 21.4618C38.6914 21.3654 38.9537 21.194 39.2643 20.9478L39.7462 21.5582L38.1237 22.8433ZM50.4941 22.8112H47.4419V17.3976C47.4419 16.8085 47.3508 16.3963 47.1688 16.1606C46.9867 15.925 46.6601 15.8072 46.1889 15.8072C45.8355 15.8072 45.4821 15.8714 45.1287 16C44.7859 16.1285 44.379 16.3747 43.9078 16.7389V21.6064L45.3536 22.1686L45.0323 22.8112H40.5504V22.3132L41.9801 21.1887V11.3092L40.5504 10.3132V9.81522L43.2973 8.78711H43.9078V15.9839L46.1086 14.249C46.3335 14.1633 46.6279 14.1204 46.9921 14.1204C47.7203 14.1204 48.2986 14.3453 48.7271 14.7951C49.1553 15.2342 49.3696 15.834 49.3696 16.5943V21.6064L50.8154 22.1686L50.4941 22.8112ZM17.0281 35.6626H7.38956V35.1646L8.8996 33.9759V24.2409L8.99598 23.6787L9.47791 23.0361H10.4418L11.3092 22.747L13.1727 23.8184L10.9076 23.759V28.8514H13.4297L14.6024 26.7951H15.1004V31.6787L14.4578 32L13.4458 29.5743H10.9076V34.9397H15.2771L17.4137 31.7751L17.8956 31.9357V35.9518L17.0281 35.6626ZM28.8586 35.6626H26.4651L23.943 32.2891L22.1598 33.9598L23.6538 35.0361L23.3325 35.6787H19.8145V35.1807L23.4932 31.6787L21.1639 28.6586L19.7502 27.7751L20.0715 27.1325H22.4651L24.955 30.4578L26.6739 28.8514L25.1799 27.7751L25.5012 27.1325H29.0193V27.6305L25.4048 31.0682L27.7502 34.1204L29.1799 35.02L28.8586 35.6626ZM35.0782 26.9718C35.5173 26.9718 36.026 27.0361 36.6043 27.1646C37.1933 27.2824 37.6164 27.4163 37.8734 27.5662V30.0401H37.263C36.8453 29.5047 36.3634 29.087 35.8172 28.7871C35.2816 28.4766 34.7248 28.3212 34.1465 28.3212C33.6538 28.3212 33.279 28.5408 33.022 28.9799C32.7756 29.4189 32.6525 30.0615 32.6525 30.9076C32.6525 31.9143 32.872 32.7603 33.3112 33.4457C33.7502 34.1204 34.3767 34.4578 35.1907 34.4578C35.8011 34.4578 36.6686 34.0188 37.7931 33.1405L38.275 33.751L35.8011 35.6947C35.3727 35.7804 34.8586 35.8233 34.259 35.8233C33.5521 35.8233 32.9149 35.6412 32.3473 35.2771C31.7904 34.9023 31.3513 34.3988 31.03 33.767C30.7194 33.1352 30.5642 32.439 30.5642 31.6787C30.5642 30.8541 30.7944 30.0776 31.2549 29.3494C31.7261 28.6212 32.3152 28.0429 33.022 27.6144C33.7288 27.186 34.4141 26.9718 35.0782 26.9718ZM49.7976 35.6626H46.7454V30.249C46.7454 29.6599 46.6543 29.2477 46.4723 29.012C46.2903 28.7763 45.9635 28.6586 45.4924 28.6586C45.139 28.6586 44.7855 28.7229 44.4321 28.8514C44.0895 28.9799 43.6824 29.2261 43.2112 29.5903V34.4578L44.657 35.02L44.3357 35.6626H39.8538V35.1646L41.2835 34.0401V24.1606L38.8366 23.9357L43.2112 28.8353L45.412 27.1004C45.6369 27.0147 45.9314 26.9718 46.2956 26.9718C47.0238 26.9718 47.6021 27.1967 48.0305 27.6465C48.459 28.0856 48.6731 28.6854 48.6731 29.4457V34.4578L50.1189 35.02L49.7976 35.6626ZM59.777 35.6626H56.7248V34.265L54.9096 35.6947C54.6953 35.7804 54.4276 35.8233 54.1063 35.8233C53.1852 35.8233 52.516 35.5931 52.0983 35.1325C51.6912 34.6719 51.4879 34.1204 51.4879 33.4779C51.4879 33.0923 51.627 32.7121 51.9055 32.3373C52.1839 31.9625 52.5802 31.6091 53.0943 31.2771H56.7248V30.249C56.7248 29.5529 56.5373 29.0602 56.1626 28.771C55.7984 28.4819 55.2951 28.3373 54.6525 28.3373C53.9884 28.3373 53.1746 28.7389 52.2108 29.5421L51.7288 28.9317L54.0421 27.1004C54.4704 27.0147 54.9844 26.9718 55.5843 26.9718C56.5587 26.9718 57.3137 27.2128 57.8493 27.6947C58.3847 28.1659 58.6525 28.8567 58.6525 29.767V34.4578L60.0983 35.02L59.777 35.6626ZM54.6204 34.4578C55.2736 34.4578 55.9751 34.1579 56.7248 33.5582V31.9357H53.8814C53.7422 32.1071 53.6405 32.2784 53.5762 32.4498C53.5226 32.6212 53.4959 32.8085 53.4959 33.012C53.4959 33.4083 53.5976 33.751 53.8011 34.0401C54.0045 34.3185 54.2776 34.4578 54.6204 34.4578ZM71.3287 35.6787H68.2765V30.265C68.2765 29.6759 68.1854 29.2637 68.0034 29.0281C67.8214 28.7924 67.4946 28.6747 67.0235 28.6747C66.67 28.6747 66.3166 28.7389 65.9632 28.8674C65.6206 28.9959 65.2135 29.2422 64.7423 29.6064V34.4739L66.1881 35.0361L65.8668 35.6787H61.3849V35.1807L62.8146 34.0562V29.51L61.3849 28.6747V28.1767L64.1319 26.8273L64.662 28.9156L66.9431 27.1004C67.168 27.0147 67.4625 26.9718 67.8267 26.9718C68.5549 26.9718 69.1332 27.1967 69.5616 27.6465C69.99 28.0856 70.2042 28.6854 70.2042 29.4457V34.4578L71.65 35.0361L71.3287 35.6787ZM79.9672 28.2409C80.2671 28.6694 80.417 29.1513 80.417 29.6867C80.417 30.1579 80.2832 30.6237 80.0154 31.0843C79.7476 31.5341 79.3889 31.9304 78.9391 32.2731C78.4893 32.6157 77.9966 32.8727 77.4612 33.0441C77.1721 33.3333 77.0275 33.6385 77.0275 33.9598C77.0275 34.1418 77.1667 34.3132 77.4451 34.4739C77.7343 34.6237 78.1573 34.8059 78.7142 35.02C79.4745 35.32 80.0583 35.5931 80.4652 35.8393C80.8829 36.0963 81.0917 36.4069 81.0917 36.771C81.0917 37.0923 80.8829 37.5047 80.4652 38.008C80.0583 38.5113 79.5496 38.9505 78.9391 39.3253C78.3287 39.7 77.7396 39.8875 77.172 39.8875C76.5724 39.8875 75.8601 39.7858 75.0355 39.5823C74.2215 39.3788 73.5415 39.1754 72.9953 38.9718V36.498H73.6058C74.2055 37.2369 74.8159 37.7992 75.4371 38.1847C76.0583 38.5702 76.7597 38.763 77.5415 38.763C77.8307 38.763 78.093 38.7041 78.3287 38.5863C78.5749 38.4686 78.7624 38.3185 78.8909 38.1365C79.0302 37.9651 79.0998 37.7992 79.0998 37.6385C79.0998 37.3494 78.9338 37.0976 78.6018 36.8835C78.2697 36.68 77.7504 36.4284 77.0435 36.1285C76.3688 35.8501 75.8655 35.6091 75.5335 35.4056C75.2122 35.202 75.0516 34.9665 75.0516 34.6988C75.0516 34.4417 75.223 34.1794 75.5656 33.9116C75.9083 33.6438 76.3153 33.4083 76.7865 33.2048C76.6151 33.2369 76.4384 33.253 76.2564 33.253C75.6888 33.253 75.1693 33.1298 74.6982 32.8835C74.227 32.6265 73.852 32.2891 73.5737 31.8714C73.3059 31.4538 73.172 30.9987 73.172 30.506C73.172 29.9169 73.3756 29.3494 73.7825 28.8032C74.1894 28.257 74.7142 27.818 75.3568 27.4859C76.0101 27.1433 76.6741 26.9718 77.3488 26.9718C78.0985 26.9718 78.7571 27.186 79.3247 27.6144H81.8467L81.8628 28.2409H79.9672ZM77.1881 31.8714C77.67 31.8714 78.0342 31.7537 78.2805 31.518C78.5375 31.2718 78.666 30.9129 78.666 30.4417C78.666 29.7992 78.4572 29.2798 78.0395 28.8835C77.6326 28.4872 77.0917 28.2891 76.417 28.2891C75.9459 28.2891 75.5817 28.4069 75.3247 28.6425C75.0784 28.8674 74.9552 29.2155 74.9552 29.6867C74.9552 30.34 75.1587 30.8702 75.5656 31.2771C75.9833 31.6734 76.5242 31.8714 77.1881 31.8714ZM88.3708 35.6947C87.9423 35.7804 87.4283 35.8233 86.8286 35.8233C86.1218 35.8233 85.4845 35.6412 84.9169 35.2771C84.36 34.9023 83.921 34.3988 83.5997 33.767C83.289 33.1352 83.1338 32.439 83.1338 31.6787C83.1338 30.8541 83.3854 30.083 83.8888 29.3654C84.3921 28.6372 85.0186 28.0589 85.7684 27.6305C86.5287 27.1914 87.2623 26.9718 87.9691 26.9718C88.9865 26.9718 89.7737 27.3735 90.3306 28.1767C90.8981 28.9799 91.182 30.0401 91.182 31.3574H85.2382C85.3025 32.2678 85.5488 33.012 85.9772 33.5903C86.4162 34.1686 87.0106 34.4578 87.7603 34.4578C88.4564 34.4578 89.4471 33.9169 90.7322 32.8353L91.2141 33.4457L88.3708 35.6947ZM87.0374 28.3212C85.8808 28.3212 85.2757 29.1137 85.2222 30.6988H88.9812C88.8848 30.1204 88.783 29.6814 88.676 29.3815C88.5796 29.071 88.4029 28.8192 88.1459 28.6265C87.8994 28.4229 87.53 28.3212 87.0374 28.3212Z" fill="url(#paint0_linear_976_5758)"/>
<path d="M68.407 9.36075C68.988 9.36029 69.545 9.12906 69.9554 8.71796C70.3659 8.30686 70.5961 7.74954 70.5957 7.16861C70.5953 6.58769 70.3639 6.03074 69.9529 5.62029C69.5418 5.20984 68.9845 4.97952 68.4035 4.97998C67.8226 4.98045 67.2656 5.21166 66.8552 5.62276C66.652 5.82633 66.4908 6.06792 66.381 6.33376C66.2711 6.5996 66.2147 6.88446 66.2149 7.17211C66.2152 7.45976 66.272 7.74454 66.3822 8.0102C66.4926 8.27587 66.6541 8.5172 66.8578 8.72043C67.2688 9.13089 67.8261 9.3612 68.407 9.36075ZM62.274 12.8653C62.8549 12.8649 63.4118 12.6337 63.8222 12.2226C64.2327 11.8115 64.4631 11.2541 64.4626 10.6732C64.4621 10.0923 64.2309 9.53536 63.8198 9.1249C63.4088 8.71446 62.8513 8.48413 62.2704 8.48459C61.6896 8.48506 61.1326 8.71627 60.7222 9.12737C60.3117 9.53849 60.0814 10.0958 60.0818 10.6767C60.0823 11.2577 60.3135 11.8146 60.7246 12.225C61.1357 12.6355 61.6931 12.8658 62.274 12.8653ZM79.3572 10.6732C79.3573 10.9609 79.301 11.2457 79.1911 11.5116C79.0812 11.7774 78.9201 12.019 78.7169 12.2226C78.5137 12.4261 78.2724 12.5877 78.0067 12.698C77.741 12.8082 77.4561 12.8651 77.1686 12.8653C76.5877 12.8658 76.0303 12.6355 75.6192 12.225C75.2081 11.8146 74.9769 11.2577 74.9765 10.6767C74.9761 10.3891 75.0327 10.1042 75.1424 9.83838C75.2523 9.57253 75.4136 9.33094 75.6168 9.12737C76.0272 8.71627 76.5842 8.48506 77.1651 8.48459C77.7459 8.48413 78.3034 8.71446 78.7145 9.1249C79.1255 9.53536 79.3567 10.0923 79.3572 10.6732ZM67.9654 10.2351C68.4301 10.2351 68.8759 10.4198 69.2046 10.7484C69.5331 11.077 69.7178 11.5227 69.7178 11.9875V13.7398H71.4701C71.9349 13.7398 72.3805 13.9244 72.7092 14.253C73.0377 14.5816 73.2224 15.0273 73.2224 15.4921C73.2224 15.9568 73.0377 16.4025 72.7092 16.7311C72.3805 17.0598 71.9349 17.2444 71.4701 17.2444H67.9654C67.5006 17.2444 67.055 17.0598 66.7263 16.7311C66.3978 16.4025 66.2131 15.9568 66.2131 15.4921V11.9875C66.2131 11.5227 66.3978 11.077 66.7263 10.7484C67.055 10.4198 67.5006 10.2351 67.9654 10.2351ZM63.5847 15.4921C63.5847 15.0273 63.4001 14.5816 63.0714 14.253C62.7429 13.9244 62.2971 13.7398 61.8324 13.7398C61.3676 13.7398 60.922 13.9244 60.5933 14.253C60.2647 14.5816 60.0801 15.0273 60.0801 15.4921V19.8728C60.0801 20.3376 60.2647 20.7832 60.5933 21.1119C60.922 21.4405 61.3676 21.6251 61.8324 21.6251H65.3369C65.8017 21.6251 66.2475 21.4405 66.576 21.1119C66.9047 20.7832 67.0892 20.3376 67.0892 19.8728C67.0892 19.4081 66.9047 18.9623 66.576 18.6338C66.2475 18.3051 65.8017 18.1205 65.3369 18.1205H63.5847V15.4921ZM77.6031 13.7398C77.1384 13.7398 76.6926 13.9244 76.3641 14.253C76.0354 14.5816 75.8508 15.0273 75.8508 15.4921V18.1205H74.0986C73.6338 18.1205 73.188 18.3051 72.8595 18.6338C72.5308 18.9623 72.3463 19.4081 72.3463 19.8728C72.3463 20.3376 72.5308 20.7832 72.8595 21.1119C73.188 21.4405 73.6338 21.6251 74.0986 21.6251H77.6031C78.0679 21.6251 78.5137 21.4405 78.8422 21.1119C79.1708 20.7832 79.3554 20.3376 79.3554 19.8728V15.4921C79.3554 15.0273 79.1708 14.5816 78.8422 14.253C78.5137 13.9244 78.0679 13.7398 77.6031 13.7398Z" fill="url(#paint1_linear_976_5758)"/>
<defs>
<linearGradient id="paint0_linear_976_5758" x1="45.6071" y1="8.78711" x2="45.6071" y2="39.8875" gradientUnits="userSpaceOnUse">
<stop stop-color="#000AFF"/>
<stop offset="1" stop-color="#00F0FF"/>
</linearGradient>
<linearGradient id="paint1_linear_976_5758" x1="69.7186" y1="4.97998" x2="69.7186" y2="21.6251" gradientUnits="userSpaceOnUse">
<stop stop-color="#000AFF"/>
<stop offset="1" stop-color="#00F0FF"/>
</linearGradient>
</defs>
</svg>
